<svg id="my-svg" width="100%" xmlns="http://www.w3.org/2000/svg" xmlns:xlink="http://www.w3.org/1999/xlink" class="flowchart theme-default" style="max-width: 151.594px; background-color: white;; background-color: white;" viewBox="0 0 151.59375 352" role="graphics-document document" aria-roledescription="flowchart-v2"><style>#my-svg{font-family:"trebuchet ms",verdana,arial,sans-serif;font-size:16px;fill:#333;}@keyframes edge-animation-frame{from{stroke-dashoffset:0;}}@keyframes dash{to{stroke-dashoffset:0;}}#my-svg .edge-animation-slow{stroke-dasharray:9,5!important;stroke-dashoffset:900;animation:dash 50s linear infinite;stroke-linecap:round;}#my-svg .edge-animation-fast{stroke-dasharray:9,5!important;stroke-dashoffset:900;animation:dash 20s linear infinite;stroke-linecap:round;}#my-svg .error-icon{fill:#552222;}#my-svg .error-text{fill:#552222;stroke:#552222;}#my-svg .edge-thickness-normal{stroke-width:1px;}#my-svg .edge-thickness-thick{stroke-width:3.5px;}#my-svg .edge-pattern-solid{stroke-dasharray:0;}#my-svg .edge-thickness-invisible{stroke-width:0;fill:none;}#my-svg .edge-pattern-dashed{stroke-dasharray:3;}#my-svg .edge-pattern-dotted{stroke-dasharray:2;}#my-svg .marker{fill:#333333;stroke:#333333;}#my-svg .marker.cross{stroke:#333333;}#my-svg svg{font-family:"trebuchet ms",verdana,arial,sans-serif;font-size:16px;}#my-svg p{margin:0;}#my-svg .label{font-family:"trebuchet ms",verdana,arial,sans-serif;color:#333;}#my-svg .cluster-label text{fill:#333;}#my-svg .cluster-label span{color:#333;}#my-svg .cluster-label span p{background-color:transparent;}#my-svg .label text,#my-svg span{fill:#333;color:#333;}#my-svg .node rect,#my-svg .node circle,#my-svg .node ellipse,#my-svg .node polygon,#my-svg .node path{fill:#ECECFF;stroke:#9370DB;stroke-width:1px;}#my-svg .rough-node .label text,#my-svg .node .label text,#my-svg .image-shape .label,#my-svg .icon-shape .label{text-anchor:middle;}#my-svg .node .katex path{fill:#000;stroke:#000;stroke-width:1px;}#my-svg .rough-node .label,#my-svg .node .label,#my-svg .image-shape .label,#my-svg .icon-shape .label{text-align:center;}#my-svg .node.clickable{cursor:pointer;}#my-svg .root .anchor path{fill:#333333!important;stroke-width:0;stroke:#333333;}#my-svg .arrowheadPath{fill:#333333;}#my-svg .edgePath .path{stroke:#333333;stroke-width:2.0px;}#my-svg .flowchart-link{stroke:#333333;fill:none;}#my-svg .edgeLabel{background-color:rgba(232,232,232, 0.8);text-align:center;}#my-svg .edgeLabel p{background-color:rgba(232,232,232, 0.8);}#my-svg .edgeLabel rect{opacity:0.5;background-color:rgba(232,232,232, 0.8);fill:rgba(232,232,232, 0.8);}#my-svg .labelBkg{background-color:rgba(232, 232, 232, 0.5);}#my-svg .cluster rect{fill:#ffffde;stroke:#aaaa33;stroke-width:1px;}#my-svg .cluster text{fill:#333;}#my-svg .cluster span{color:#333;}#my-svg div.mermaidTooltip{position:absolute;text-align:center;max-width:200px;padding:2px;font-family:"trebuchet ms",verdana,arial,sans-serif;font-size:12px;background:hsl(80, 100%, 96.2745098039%);border:1px solid #aaaa33;border-radius:2px;pointer-events:none;z-index:100;}#my-svg .flowchartTitleText{text-anchor:middle;font-size:18px;fill:#333;}#my-svg rect.text{fill:none;stroke-width:0;}#my-svg .icon-shape,#my-svg .image-shape{background-color:rgba(232,232,232, 0.8);text-align:center;}#my-svg .icon-shape p,#my-svg .image-shape p{background-color:rgba(232,232,232, 0.8);padding:2px;}#my-svg .icon-shape rect,#my-svg .image-shape rect{opacity:0.5;background-color:rgba(232,232,232, 0.8);fill:rgba(232,232,232, 0.8);}#my-svg .label-icon{display:inline-block;height:1em;overflow:visible;vertical-align:-0.125em;}#my-svg .node .label-icon path{fill:currentColor;stroke:revert;stroke-width:revert;}#my-svg :root{--mermaid-font-family:"trebuchet ms",verdana,arial,sans-serif;}</style><g><marker id="my-svg_flowchart-v2-pointEnd" class="marker flowchart-v2" viewBox="0 0 10 10" refX="5" refY="5" markerUnits="userSpaceOnUse" markerWidth="8" markerHeight="8" orient="auto"><path d="M 0 0 L 10 5 L 0 10 z" class="arrowMarkerPath" style="stroke-width: 1; stroke-dasharray: 1, 0;"/></marker><marker id="my-svg_flowchart-v2-pointStart" class="marker flowchart-v2" viewBox="0 0 10 10" refX="4.5" refY="5" markerUnits="userSpaceOnUse" markerWidth="8" markerHeight="8" orient="auto"><path d="M 0 5 L 10 10 L 10 0 z" class="arrowMarkerPath" style="stroke-width: 1; stroke-dasharray: 1, 0;"/></marker><marker id="my-svg_flowchart-v2-circleEnd" class="marker flowchart-v2" viewBox="0 0 10 10" refX="11" refY="5" markerUnits="userSpaceOnUse" markerWidth="11" markerHeight="11" orient="auto"><circle cx="5" cy="5" r="5" class="arrowMarkerPath" style="stroke-width: 1; stroke-dasharray: 1, 0;"/></marker><marker id="my-svg_flowchart-v2-circleStart" class="marker flowchart-v2" viewBox="0 0 10 10" refX="-1" refY="5" markerUnits="userSpaceOnUse" markerWidth="11" markerHeight="11" orient="auto"><circle cx="5" cy="5" r="5" class="arrowMarkerPath" style="stroke-width: 1; stroke-dasharray: 1, 0;"/></marker><marker id="my-svg_flowchart-v2-crossEnd" class="marker cross flowchart-v2" viewBox="0 0 11 11" refX="12" refY="5.2" markerUnits="userSpaceOnUse" markerWidth="11" markerHeight="11" orient="auto"><path d="M 1,1 l 9,9 M 10,1 l -9,9" class="arrowMarkerPath" style="stroke-width: 2; stroke-dasharray: 1, 0;"/></marker><marker id="my-svg_flowchart-v2-crossStart" class="marker cross flowchart-v2" viewBox="0 0 11 11" refX="-1" refY="5.2" markerUnits="userSpaceOnUse" markerWidth="11" markerHeight="11" orient="auto"><path d="M 1,1 l 9,9 M 10,1 l -9,9" class="arrowMarkerPath" style="stroke-width: 2; stroke-dasharray: 1, 0;"/></marker><g class="root"><g class="clusters"/><g class="edgePaths"><path d="M76.297,47.5L76.214,51.583C76.13,55.667,75.964,63.833,75.88,71.417C75.797,79,75.797,86,75.797,89.5L75.797,93" id="L_n_5a10c6e4_cd1d_38_start_n_57fce957e0952f4e_Step_2_0" class="edge-thickness-normal edge-pattern-solid edge-thickness-normal edge-pattern-solid flowchart-link" style=";" data-edge="true" data-et="edge" data-id="L_n_5a10c6e4_cd1d_38_start_n_57fce957e0952f4e_Step_2_0" data-points="W3sieCI6NzYuMjk2ODc1LCJ5Ijo0Ny41fSx7IngiOjc1Ljc5Njg3NSwieSI6NzJ9LHsieCI6NzUuNzk2ODc1LCJ5Ijo5N31d" marker-end="url(#my-svg_flowchart-v2-pointEnd)"/><path d="M75.797,151L75.797,155.167C75.797,159.333,75.797,167.667,75.797,175.333C75.797,183,75.797,190,75.797,193.5L75.797,197" id="L_n_57fce957e0952f4e_Step_2_n_57fce957e0952f4e_Step_3_0" class="edge-thickness-normal edge-pattern-solid edge-thickness-normal edge-pattern-solid flowchart-link" style=";" data-edge="true" data-et="edge" data-id="L_n_57fce957e0952f4e_Step_2_n_57fce957e0952f4e_Step_3_0" data-points="W3sieCI6NzUuNzk2ODc1LCJ5IjoxNTF9LHsieCI6NzUuNzk2ODc1LCJ5IjoxNzZ9LHsieCI6NzUuNzk2ODc1LCJ5IjoyMDF9XQ==" marker-end="url(#my-svg_flowchart-v2-pointEnd)"/><path d="M75.797,255L75.797,259.167C75.797,263.333,75.797,271.667,75.867,279.417C75.937,287.167,76.078,294.334,76.148,297.917L76.218,301.501" id="L_n_57fce957e0952f4e_Step_3_n_5a10c6e4_cd1d_38_end_0" class="edge-thickness-normal edge-pattern-solid edge-thickness-normal edge-pattern-solid flowchart-link" style=";" data-edge="true" data-et="edge" data-id="L_n_57fce957e0952f4e_Step_3_n_5a10c6e4_cd1d_38_end_0" data-points="W3sieCI6NzUuNzk2ODc1LCJ5IjoyNTV9LHsieCI6NzUuNzk2ODc1LCJ5IjoyODB9LHsieCI6NzYuMjk2ODc1LCJ5IjozMDUuNX1d" marker-end="url(#my-svg_flowchart-v2-pointEnd)"/></g><g class="edgeLabels"><g class="edgeLabel"><g class="label" data-id="L_n_5a10c6e4_cd1d_38_start_n_57fce957e0952f4e_Step_2_0" transform="translate(0, 0)"><foreignObject width="0" height="0"><div xmlns="http://www.w3.org/1999/xhtml" class="labelBkg" style="display: table-cell; white-space: nowrap; line-height: 1.5; max-width: 200px; text-align: center;"><span class="edgeLabel"></span></div></foreignObject></g></g><g class="edgeLabel"><g class="label" data-id="L_n_57fce957e0952f4e_Step_2_n_57fce957e0952f4e_Step_3_0" transform="translate(0, 0)"><foreignObject width="0" height="0"><div xmlns="http://www.w3.org/1999/xhtml" class="labelBkg" style="display: table-cell; white-space: nowrap; line-height: 1.5; max-width: 200px; text-align: center;"><span class="edgeLabel"></span></div></foreignObject></g></g><g class="edgeLabel"><g class="label" data-id="L_n_57fce957e0952f4e_Step_3_n_5a10c6e4_cd1d_38_end_0" transform="translate(0, 0)"><foreignObject width="0" height="0"><div xmlns="http://www.w3.org/1999/xhtml" class="labelBkg" style="display: table-cell; white-space: nowrap; line-height: 1.5; max-width: 200px; text-align: center;"><span class="edgeLabel"></span></div></foreignObject></g></g></g><g class="nodes"><g class="node default" id="flowchart-n_5a10c6e4_cd1d_38_start-0" transform="translate(75.796875, 27.5)"><g class="basic label-container outer-path"><path d="M-10.3828125 -19.5 C-2.7243789553537363 -19.5, 4.934054589292527 -19.5, 10.3828125 -19.5 C10.3828125 -19.5, 10.382812499999998 -19.5, 10.382812499999998 -19.5 C10.684819335089546 -19.490315228619323, 10.986826170179095 -19.480630457238643, 11.6321817896239 -19.45993515863156 C12.034863504033014 -19.421088937938126, 12.43754521844213 -19.382242717244697, 12.876417152847864 -19.3399052695533 C13.219721087444087 -19.284402551769556, 13.56302502204031 -19.228899833985817, 14.110405759676757 -19.140403561325776 C14.373403067845354 -19.08037614195412, 14.63640037601395 -19.02034872258246, 15.32907688623539 -18.862249829261074 C15.760133076842926 -18.734314614548875, 16.191189267450465 -18.606379399836676, 16.527422751460602 -18.50658706670804 C16.76798282752339 -18.418058735003967, 17.008542903586182 -18.32953040329989, 17.700519095147794 -18.074876768247425 C18.117829375039666 -17.890145886408916, 18.535139654931537 -17.70541500457041, 18.84354541279238 -17.568892924097174 C19.18836050790068 -17.389003109843785, 19.533175603008978 -17.209113295590395, 19.951804764076783 -16.990714730406097 C20.234806666849618 -16.819157313841423, 20.517808569622453 -16.647599897276745, 21.020743073605697 -16.342718045390892 C21.300200888882763 -16.147780370987455, 21.579658704159833 -15.95284269658402, 22.045967844578712 -15.627565626425154 C22.36882392203226 -15.370096496216995, 22.691679999485803 -15.112627366008835, 23.02326620850187 -14.848196188198123 C23.32748128477345 -14.571916105018115, 23.63169636104503 -14.295636021838108, 23.948622236767985 -14.007812326905688 C24.197992122177872 -13.75031744657163, 24.447362007587756 -13.492822566237573, 24.818233442968648 -13.10986736009568 C25.10963223551799 -12.76757375730621, 25.40103102806733 -12.425280154516738, 25.628526408126582 -12.158051136245305 C25.851211704104045 -11.85967312668331, 26.07389700008151 -11.561295117121317, 26.376171464640635 -11.156274872382312 C26.527710205280822 -10.923470672909444, 26.679248945921014 -10.690666473436577, 27.058096378604247 -10.108655082055241 C27.215971566854083 -9.828331698721318, 27.373846755103923 -9.548008315387396, 27.6714989742735 -9.019496659696287 C27.874877964664673 -8.59717583453574, 28.078256955055842 -8.174855009375193, 28.21385864880834 -7.893275190886684 C28.389499019664516 -7.4594400790963755, 28.56513939052069 -7.025604967306068, 28.682946729970325 -6.734618561215508 C28.81480424066172 -6.3374847476543295, 28.946661751353112 -5.940350934093152, 29.07683563421488 -5.548287939305138 C29.14552879390089 -5.286331149618648, 29.2142219535869 -5.024374359932158, 29.39390678754556 -4.339158212148133 C29.48618827077213 -3.8653122994780995, 29.578469753998693 -3.391466386808066, 29.632857276581777 -3.1121979531509023 C29.686594749374006 -2.695420725838641, 29.740332222166234 -2.2786434985263795, 29.792705202509367 -1.872449005199798 C29.811631916049794 -1.5776501644394214, 29.830558629590225 -1.2828513236790449, 29.872793715913414 -0.6250057626472757 C29.872793715913414 -0.3089588415895834, 29.872793715913414 0.007088079468108854, 29.872793715913414 0.625005762647271 C29.843505804387213 1.081188625444553, 29.81421789286101 1.5373714882418348, 29.792705202509367 1.8724490051997846 C29.752862581606657 2.181460505105813, 29.713019960703942 2.4904720050118416, 29.632857276581777 3.1121979531508885 C29.57080038935841 3.4308469533151182, 29.508743502135044 3.7494959534793484, 29.39390678754556 4.339158212148129 C29.29250945913108 4.725830171272665, 29.1911121307166 5.1125021303972, 29.076835634214884 5.548287939305125 C28.922099221819025 6.014329359542205, 28.767362809423165 6.480370779779284, 28.68294672997033 6.734618561215495 C28.553399111471457 7.054603683540527, 28.423851492972585 7.374588805865559, 28.213858648808344 7.893275190886679 C28.09357958309891 8.143037244392042, 27.973300517389482 8.392799297897406, 27.671498974273504 9.019496659696284 C27.54572295028318 9.242824726494598, 27.419946926292855 9.466152793292913, 27.05809637860425 10.108655082055236 C26.81168227090738 10.487213322930424, 26.565268163210504 10.865771563805614, 26.37617146464064 11.156274872382301 C26.11294872162498 11.508969367938082, 25.849725978609317 11.861663863493865, 25.628526408126582 12.158051136245302 C25.340617197860595 12.49624567712189, 25.05270798759461 12.834440217998477, 24.81823344296866 13.10986736009567 C24.474480586598666 13.464820406932065, 24.130727730228678 13.819773453768457, 23.94862223676799 14.007812326905684 C23.672916175375256 14.258201277079923, 23.39721011398252 14.508590227254162, 23.023266208501887 14.848196188198111 C22.657915454879564 15.139553691820044, 22.292564701257245 15.430911195441977, 22.045967844578715 15.627565626425152 C21.775387753872817 15.816310584478245, 21.50480766316692 16.005055542531338, 21.020743073605708 16.34271804539089 C20.645588683106652 16.570138841563328, 20.270434292607597 16.797559637735766, 19.951804764076787 16.990714730406093 C19.641968614767062 17.15235605104145, 19.332132465457335 17.31399737167681, 18.843545412792388 17.56889292409717 C18.527049039160712 17.708996480172566, 18.210552665529036 17.849100036247957, 17.700519095147804 18.07487676824742 C17.32505068824205 18.213052612780643, 16.949582281336298 18.351228457313866, 16.527422751460616 18.506587066708033 C16.14708992826389 18.619467852225096, 15.766757105067159 18.732348637742156, 15.329076886235413 18.86224982926107 C15.04526204088467 18.927028715647428, 14.761447195533927 18.991807602033784, 14.110405759676766 19.140403561325773 C13.73247905026129 19.201503820838663, 13.354552340845814 19.262604080351554, 12.876417152847878 19.3399052695533 C12.531373794691246 19.37319118733932, 12.186330436534615 19.406477105125337, 11.6321817896239 19.45993515863156 C11.303020073770801 19.470490734184555, 10.973858357917702 19.48104630973755, 10.382812500000004 19.5 C10.382812500000002 19.5, 10.382812500000002 19.5, 10.3828125 19.5 C6.215070260262183 19.5, 2.0473280205243665 19.5, -10.382812499999996 19.5 C-10.73090245710804 19.488837432591545, -11.078992414216085 19.47767486518309, -11.632181789623893 19.45993515863156 C-12.034593273117263 19.42111500678957, -12.437004756610632 19.38229485494758, -12.876417152847871 19.3399052695533 C-13.146996960549695 19.296160024621816, -13.417576768251516 19.252414779690334, -14.110405759676759 19.140403561325773 C-14.373505413920638 19.0803527821303, -14.636605068164517 19.020302002934834, -15.329076886235388 18.862249829261074 C-15.622086257858543 18.7752861858009, -15.915095629481698 18.688322542340725, -16.52742275146059 18.506587066708043 C-16.958710215856513 18.347869293032726, -17.389997680252435 18.18915151935741, -17.700519095147797 18.074876768247425 C-18.0417622846834 17.923818530859574, -18.383005474219 17.772760293471723, -18.84354541279238 17.568892924097174 C-19.23050594418966 17.367015862727264, -19.617466475586937 17.165138801357354, -19.95180476407678 16.990714730406097 C-20.198272467344488 16.841304560280218, -20.444740170612196 16.69189439015434, -21.020743073605686 16.3427180453909 C-21.23654847483856 16.1921815395561, -21.452353876071435 16.0416450337213, -22.045967844578712 15.627565626425156 C-22.406054869662707 15.340405806238838, -22.766141894746703 15.05324598605252, -23.02326620850187 14.848196188198125 C-23.27916007461102 14.615800149578476, -23.535053940720168 14.383404110958827, -23.948622236767974 14.007812326905697 C-24.158369124331205 13.791231444956937, -24.368116011894433 13.574650563008175, -24.818233442968655 13.109867360095677 C-25.085176909655235 12.796300374612064, -25.352120376341816 12.482733389128452, -25.62852640812658 12.158051136245307 C-25.84706230940485 11.865232937562597, -26.06559821068312 11.572414738879889, -26.376171464640635 11.156274872382316 C-26.55573917439138 10.880410649523572, -26.735306884142123 10.604546426664829, -27.058096378604244 10.108655082055249 C-27.243370864499127 9.779681471272806, -27.42864535039401 9.450707860490363, -27.6714989742735 9.019496659696289 C-27.834615690182115 8.680781308973437, -27.997732406090734 8.342065958250586, -28.21385864880834 7.893275190886686 C-28.312785708508645 7.648923440802349, -28.41171276820895 7.404571690718012, -28.682946729970325 6.73461856121551 C-28.80139998844826 6.377856219643707, -28.919853246926195 6.0210938780719045, -29.07683563421488 5.5482879393051325 C-29.152717531995865 5.258917375643711, -29.228599429776846 4.96954681198229, -29.393906787545557 4.339158212148136 C-29.48684951210523 3.8619169649860092, -29.579792236664904 3.384675717823883, -29.632857276581777 3.112197953150904 C-29.66622542165201 2.853401209271741, -29.699593566722235 2.594604465392578, -29.792705202509364 1.872449005199809 C-29.80890501605429 1.6201238329834693, -29.825104829599212 1.3677986607671297, -29.872793715913414 0.6250057626472781 C-29.872793715913414 0.15011420949761806, -29.872793715913414 -0.324777343652042, -29.872793715913414 -0.6250057626472687 C-29.85230490685344 -0.9441355020253338, -29.83181609779347 -1.263265241403399, -29.792705202509367 -1.8724490051997822 C-29.747758700236158 -2.2210452011400212, -29.702812197962945 -2.5696413970802605, -29.632857276581777 -3.112197953150895 C-29.538414759267543 -3.5971403191263867, -29.443972241953308 -4.082082685101878, -29.39390678754556 -4.339158212148126 C-29.286150503611594 -4.750079624657212, -29.17839421967763 -5.161001037166297, -29.076835634214884 -5.548287939305123 C-28.96337577175436 -5.890010967662089, -28.84991590929384 -6.231733996019055, -28.682946729970332 -6.734618561215485 C-28.536541387806484 -7.096242586914924, -28.390136045642635 -7.457866612614363, -28.213858648808344 -7.893275190886676 C-28.065460344334465 -8.201427445341741, -27.91706203986059 -8.509579699796806, -27.671498974273504 -9.019496659696282 C-27.44725098953496 -9.417671664170342, -27.22300300479642 -9.815846668644403, -27.058096378604247 -10.108655082055243 C-26.79261302418624 -10.51650880670382, -26.527129669768236 -10.924362531352397, -26.37617146464064 -11.156274872382308 C-26.200045635560024 -11.392267437957223, -26.023919806479405 -11.628260003532137, -25.628526408126586 -12.158051136245302 C-25.34431194765072 -12.491905613781196, -25.06009748717485 -12.82576009131709, -24.818233442968662 -13.10986736009567 C-24.51913403106097 -13.41871205940877, -24.220034619153274 -13.727556758721871, -23.948622236767996 -14.007812326905677 C-23.700679537015024 -14.23298732661698, -23.45273683726205 -14.458162326328281, -23.023266208501887 -14.848196188198107 C-22.759291193131762 -15.058709238285607, -22.495316177761637 -15.269222288373104, -22.04596784457872 -15.627565626425149 C-21.666481607082066 -15.892278798008363, -21.286995369585412 -16.156991969591576, -21.02074307360571 -16.342718045390885 C-20.658756184283973 -16.562156624968807, -20.296769294962235 -16.78159520454673, -19.95180476407679 -16.99071473040609 C-19.52063306725229 -17.21565672846078, -19.08946137042779 -17.440598726515468, -18.843545412792388 -17.56889292409717 C-18.412553791429925 -17.759680129962135, -17.981562170067463 -17.950467335827096, -17.700519095147804 -18.07487676824742 C-17.317372689847165 -18.215878187164602, -16.934226284546526 -18.356879606081783, -16.52742275146062 -18.506587066708033 C-16.0683564300305 -18.642835541220197, -15.609290108600385 -18.779084015732362, -15.329076886235413 -18.862249829261067 C-14.849728350823575 -18.971658004427297, -14.370379815411738 -19.081066179593524, -14.110405759676768 -19.140403561325773 C-13.688714068525119 -19.208579403683267, -13.267022377373468 -19.276755246040757, -12.87641715284788 -19.3399052695533 C-12.459967620882798 -19.38007965504813, -12.043518088917715 -19.420254040542964, -11.632181789623903 -19.45993515863156 C-11.226358806591438 -19.472949111810895, -10.820535823558973 -19.485963064990226, -10.382812500000005 -19.5 C-10.382812500000004 -19.5, -10.382812500000002 -19.5, -10.3828125 -19.5" stroke="none" stroke-width="0" fill="#ECECFF" style=""/><path d="M-10.3828125 -19.5 C-3.56618686960113 -19.5, 3.2504387607977403 -19.5, 10.3828125 -19.5 M-10.3828125 -19.5 C-2.640107080123798 -19.5, 5.102598339752404 -19.5, 10.3828125 -19.5 M10.3828125 -19.5 C10.3828125 -19.5, 10.3828125 -19.5, 10.382812499999998 -19.5 M10.3828125 -19.5 C10.3828125 -19.5, 10.3828125 -19.5, 10.382812499999998 -19.5 M10.382812499999998 -19.5 C10.745452817825454 -19.488370830843895, 11.108093135650911 -19.476741661687793, 11.6321817896239 -19.45993515863156 M10.382812499999998 -19.5 C10.797936537740238 -19.486687780099594, 11.213060575480478 -19.473375560199184, 11.6321817896239 -19.45993515863156 M11.6321817896239 -19.45993515863156 C12.009740384095789 -19.423512535103498, 12.387298978567678 -19.38708991157544, 12.876417152847864 -19.3399052695533 M11.6321817896239 -19.45993515863156 C12.043006538813962 -19.420303389166243, 12.453831288004023 -19.380671619700927, 12.876417152847864 -19.3399052695533 M12.876417152847864 -19.3399052695533 C13.366337578947013 -19.26069873445124, 13.856258005046161 -19.181492199349176, 14.110405759676757 -19.140403561325776 M12.876417152847864 -19.3399052695533 C13.181108143650535 -19.290645193074248, 13.485799134453206 -19.241385116595197, 14.110405759676757 -19.140403561325776 M14.110405759676757 -19.140403561325776 C14.48948910864297 -19.053880260674273, 14.86857245760918 -18.967356960022773, 15.32907688623539 -18.862249829261074 M14.110405759676757 -19.140403561325776 C14.5470150446299 -19.04075034117707, 14.983624329583042 -18.941097121028367, 15.32907688623539 -18.862249829261074 M15.32907688623539 -18.862249829261074 C15.573136623583427 -18.78981418031188, 15.817196360931465 -18.717378531362687, 16.527422751460602 -18.50658706670804 M15.32907688623539 -18.862249829261074 C15.780790746400038 -18.728183526658643, 16.232504606564685 -18.594117224056216, 16.527422751460602 -18.50658706670804 M16.527422751460602 -18.50658706670804 C16.936063853781008 -18.35620336361719, 17.344704956101413 -18.205819660526338, 17.700519095147794 -18.074876768247425 M16.527422751460602 -18.50658706670804 C16.948931092089214 -18.351468100976323, 17.37043943271783 -18.196349135244603, 17.700519095147794 -18.074876768247425 M17.700519095147794 -18.074876768247425 C18.074313219952383 -17.90940919740518, 18.448107344756973 -17.743941626562936, 18.84354541279238 -17.568892924097174 M17.700519095147794 -18.074876768247425 C17.97689869368151 -17.952531718486046, 18.253278292215224 -17.830186668724668, 18.84354541279238 -17.568892924097174 M18.84354541279238 -17.568892924097174 C19.21450014603063 -17.375366077374625, 19.585454879268877 -17.18183923065208, 19.951804764076783 -16.990714730406097 M18.84354541279238 -17.568892924097174 C19.277800964256212 -17.34234208105245, 19.712056515720043 -17.115791238007727, 19.951804764076783 -16.990714730406097 M19.951804764076783 -16.990714730406097 C20.275673078357116 -16.794383855027885, 20.599541392637445 -16.598052979649676, 21.020743073605697 -16.342718045390892 M19.951804764076783 -16.990714730406097 C20.218124905402917 -16.829269895663323, 20.484445046729046 -16.667825060920553, 21.020743073605697 -16.342718045390892 M21.020743073605697 -16.342718045390892 C21.30061554943601 -16.14749112173588, 21.58048802526632 -15.952264198080865, 22.045967844578712 -15.627565626425154 M21.020743073605697 -16.342718045390892 C21.34654559530984 -16.115452310013932, 21.672348117013986 -15.888186574636975, 22.045967844578712 -15.627565626425154 M22.045967844578712 -15.627565626425154 C22.348785615986625 -15.386076512046667, 22.651603387394537 -15.14458739766818, 23.02326620850187 -14.848196188198123 M22.045967844578712 -15.627565626425154 C22.34378664813906 -15.390063055876983, 22.6416054516994 -15.152560485328811, 23.02326620850187 -14.848196188198123 M23.02326620850187 -14.848196188198123 C23.364456511740347 -14.538336182197677, 23.70564681497882 -14.228476176197232, 23.948622236767985 -14.007812326905688 M23.02326620850187 -14.848196188198123 C23.298075840555995 -14.59862135143099, 23.572885472610118 -14.349046514663856, 23.948622236767985 -14.007812326905688 M23.948622236767985 -14.007812326905688 C24.147724318129452 -13.802223081315088, 24.346826399490922 -13.596633835724486, 24.818233442968648 -13.10986736009568 M23.948622236767985 -14.007812326905688 C24.141330540132596 -13.808825182035775, 24.33403884349721 -13.609838037165865, 24.818233442968648 -13.10986736009568 M24.818233442968648 -13.10986736009568 C25.02807889132566 -12.863370955911265, 25.23792433968267 -12.616874551726848, 25.628526408126582 -12.158051136245305 M24.818233442968648 -13.10986736009568 C25.088873596605247 -12.791958035773133, 25.359513750241845 -12.474048711450585, 25.628526408126582 -12.158051136245305 M25.628526408126582 -12.158051136245305 C25.794078584053576 -11.936226302616628, 25.95963075998057 -11.714401468987951, 26.376171464640635 -11.156274872382312 M25.628526408126582 -12.158051136245305 C25.892688725943728 -11.804097696052558, 26.156851043760874 -11.450144255859813, 26.376171464640635 -11.156274872382312 M26.376171464640635 -11.156274872382312 C26.597076287371557 -10.816905743416955, 26.81798111010248 -10.477536614451598, 27.058096378604247 -10.108655082055241 M26.376171464640635 -11.156274872382312 C26.5717840385722 -10.855761429492528, 26.767396612503763 -10.555247986602744, 27.058096378604247 -10.108655082055241 M27.058096378604247 -10.108655082055241 C27.191935195573063 -9.871010709877293, 27.325774012541878 -9.633366337699345, 27.6714989742735 -9.019496659696287 M27.058096378604247 -10.108655082055241 C27.284575911823 -9.706517737285775, 27.51105544504176 -9.30438039251631, 27.6714989742735 -9.019496659696287 M27.6714989742735 -9.019496659696287 C27.856043649500418 -8.636285692964103, 28.04058832472733 -8.25307472623192, 28.21385864880834 -7.893275190886684 M27.6714989742735 -9.019496659696287 C27.88637405486694 -8.573303957253804, 28.10124913546038 -8.127111254811322, 28.21385864880834 -7.893275190886684 M28.21385864880834 -7.893275190886684 C28.38026986121505 -7.482236278900189, 28.546681073621766 -7.071197366913694, 28.682946729970325 -6.734618561215508 M28.21385864880834 -7.893275190886684 C28.369240748899834 -7.509478399552156, 28.52462284899133 -7.1256816082176275, 28.682946729970325 -6.734618561215508 M28.682946729970325 -6.734618561215508 C28.770487201289832 -6.470960609281126, 28.85802767260934 -6.207302657346743, 29.07683563421488 -5.548287939305138 M28.682946729970325 -6.734618561215508 C28.82794860657095 -6.297896011806023, 28.972950483171577 -5.861173462396538, 29.07683563421488 -5.548287939305138 M29.07683563421488 -5.548287939305138 C29.159298219689102 -5.233822361381308, 29.241760805163324 -4.919356783457477, 29.39390678754556 -4.339158212148133 M29.07683563421488 -5.548287939305138 C29.183065289708612 -5.143188222683617, 29.289294945202343 -4.738088506062096, 29.39390678754556 -4.339158212148133 M29.39390678754556 -4.339158212148133 C29.462027579764893 -3.989372341436399, 29.530148371984225 -3.639586470724665, 29.632857276581777 -3.1121979531509023 M29.39390678754556 -4.339158212148133 C29.4686938302215 -3.955142554254257, 29.543480872897437 -3.571126896360381, 29.632857276581777 -3.1121979531509023 M29.632857276581777 -3.1121979531509023 C29.68387632514568 -2.7165042873399554, 29.734895373709584 -2.3208106215290085, 29.792705202509367 -1.872449005199798 M29.632857276581777 -3.1121979531509023 C29.680652452693636 -2.7415080054524026, 29.72844762880549 -2.370818057753903, 29.792705202509367 -1.872449005199798 M29.792705202509367 -1.872449005199798 C29.8201790601042 -1.4445214966615683, 29.847652917699033 -1.0165939881233386, 29.872793715913414 -0.6250057626472757 M29.792705202509367 -1.872449005199798 C29.82095271847418 -1.4324711430633037, 29.849200234438996 -0.9924932809268094, 29.872793715913414 -0.6250057626472757 M29.872793715913414 -0.6250057626472757 C29.872793715913414 -0.2588758658920319, 29.872793715913414 0.10725403086321195, 29.872793715913414 0.625005762647271 M29.872793715913414 -0.6250057626472757 C29.872793715913414 -0.3387592226845654, 29.872793715913414 -0.05251268272185505, 29.872793715913414 0.625005762647271 M29.872793715913414 0.625005762647271 C29.845448116782208 1.0509355420861304, 29.818102517651003 1.4768653215249898, 29.792705202509367 1.8724490051997846 M29.872793715913414 0.625005762647271 C29.85353083994298 0.9250406046004216, 29.834267963972543 1.2250754465535723, 29.792705202509367 1.8724490051997846 M29.792705202509367 1.8724490051997846 C29.75544511731556 2.16143086812691, 29.718185032121752 2.4504127310540356, 29.632857276581777 3.1121979531508885 M29.792705202509367 1.8724490051997846 C29.753112759438064 2.1795201752486015, 29.71352031636676 2.486591345297419, 29.632857276581777 3.1121979531508885 M29.632857276581777 3.1121979531508885 C29.567813496355168 3.446184017606707, 29.50276971612856 3.7801700820625257, 29.39390678754556 4.339158212148129 M29.632857276581777 3.1121979531508885 C29.57958680406245 3.385730570819275, 29.526316331543125 3.6592631884876616, 29.39390678754556 4.339158212148129 M29.39390678754556 4.339158212148129 C29.280018798045436 4.77346247547899, 29.166130808545308 5.207766738809852, 29.076835634214884 5.548287939305125 M29.39390678754556 4.339158212148129 C29.32422330416489 4.6048915352913635, 29.25453982078422 4.8706248584345975, 29.076835634214884 5.548287939305125 M29.076835634214884 5.548287939305125 C28.932974786930956 5.981573890211051, 28.789113939647027 6.414859841116977, 28.68294672997033 6.734618561215495 M29.076835634214884 5.548287939305125 C28.93018647817526 5.989971831926546, 28.78353732213563 6.4316557245479675, 28.68294672997033 6.734618561215495 M28.68294672997033 6.734618561215495 C28.526191021564344 7.121808191643729, 28.369435313158355 7.508997822071964, 28.213858648808344 7.893275190886679 M28.68294672997033 6.734618561215495 C28.574382212692246 7.00277501784451, 28.465817695414163 7.2709314744735245, 28.213858648808344 7.893275190886679 M28.213858648808344 7.893275190886679 C27.99793492572686 8.341645421892943, 27.782011202645375 8.790015652899207, 27.671498974273504 9.019496659696284 M28.213858648808344 7.893275190886679 C28.066468156958656 8.199334700863878, 27.91907766510897 8.505394210841077, 27.671498974273504 9.019496659696284 M27.671498974273504 9.019496659696284 C27.541823006257985 9.249749472023485, 27.41214703824247 9.480002284350688, 27.05809637860425 10.108655082055236 M27.671498974273504 9.019496659696284 C27.448221839842553 9.415947821139964, 27.2249447054116 9.812398982583646, 27.05809637860425 10.108655082055236 M27.05809637860425 10.108655082055236 C26.810195572018674 10.489497291658026, 26.562294765433098 10.870339501260814, 26.37617146464064 11.156274872382301 M27.05809637860425 10.108655082055236 C26.788017965668377 10.523568050533237, 26.517939552732503 10.93848101901124, 26.37617146464064 11.156274872382301 M26.37617146464064 11.156274872382301 C26.097672853013027 11.52943764021784, 25.819174241385415 11.902600408053376, 25.628526408126582 12.158051136245302 M26.37617146464064 11.156274872382301 C26.10625345930031 11.517940409502197, 25.836335453959975 11.87960594662209, 25.628526408126582 12.158051136245302 M25.628526408126582 12.158051136245302 C25.44465440948344 12.37403764846465, 25.2607824108403 12.590024160683999, 24.81823344296866 13.10986736009567 M25.628526408126582 12.158051136245302 C25.400062501165227 12.426417841326689, 25.17159859420387 12.694784546408076, 24.81823344296866 13.10986736009567 M24.81823344296866 13.10986736009567 C24.525350903802217 13.412292627888684, 24.232468364635775 13.714717895681696, 23.94862223676799 14.007812326905684 M24.81823344296866 13.10986736009567 C24.47194550711435 13.46743808463352, 24.12565757126004 13.825008809171369, 23.94862223676799 14.007812326905684 M23.94862223676799 14.007812326905684 C23.605789462106777 14.319163981994846, 23.26295668744557 14.63051563708401, 23.023266208501887 14.848196188198111 M23.94862223676799 14.007812326905684 C23.676767214709916 14.254703865049102, 23.40491219265184 14.501595403192521, 23.023266208501887 14.848196188198111 M23.023266208501887 14.848196188198111 C22.713270337902078 15.09540964566489, 22.40327446730227 15.342623103131672, 22.045967844578715 15.627565626425152 M23.023266208501887 14.848196188198111 C22.784133668677697 15.038898025123766, 22.545001128853507 15.229599862049419, 22.045967844578715 15.627565626425152 M22.045967844578715 15.627565626425152 C21.743823768390964 15.838328254367477, 21.441679692203213 16.0490908823098, 21.020743073605708 16.34271804539089 M22.045967844578715 15.627565626425152 C21.675168949490715 15.886218884013081, 21.30437005440271 16.14487214160101, 21.020743073605708 16.34271804539089 M21.020743073605708 16.34271804539089 C20.70241895199454 16.535687998591758, 20.384094830383376 16.728657951792627, 19.951804764076787 16.990714730406093 M21.020743073605708 16.34271804539089 C20.674034822370334 16.552894624773614, 20.32732657113496 16.763071204156336, 19.951804764076787 16.990714730406093 M19.951804764076787 16.990714730406093 C19.699464568033317 17.122360449050362, 19.44712437198985 17.25400616769463, 18.843545412792388 17.56889292409717 M19.951804764076787 16.990714730406093 C19.64061718048191 17.153061093442382, 19.329429596887035 17.315407456478667, 18.843545412792388 17.56889292409717 M18.843545412792388 17.56889292409717 C18.458074781116576 17.739529338160036, 18.07260414944076 17.910165752222902, 17.700519095147804 18.07487676824742 M18.843545412792388 17.56889292409717 C18.552500788277737 17.69772974583777, 18.261456163763086 17.82656656757837, 17.700519095147804 18.07487676824742 M17.700519095147804 18.07487676824742 C17.350714081995015 18.203608246649743, 17.000909068842226 18.332339725052062, 16.527422751460616 18.506587066708033 M17.700519095147804 18.07487676824742 C17.24797653873555 18.241416612264665, 16.795433982323292 18.40795645628191, 16.527422751460616 18.506587066708033 M16.527422751460616 18.506587066708033 C16.230877494764584 18.594600142297598, 15.934332238068553 18.682613217887166, 15.329076886235413 18.86224982926107 M16.527422751460616 18.506587066708033 C16.152300663757504 18.617921333282297, 15.777178576054395 18.729255599856565, 15.329076886235413 18.86224982926107 M15.329076886235413 18.86224982926107 C15.066131421279543 18.92226541575773, 14.803185956323674 18.982281002254393, 14.110405759676766 19.140403561325773 M15.329076886235413 18.86224982926107 C15.026613766688012 18.931285062541452, 14.724150647140613 19.000320295821833, 14.110405759676766 19.140403561325773 M14.110405759676766 19.140403561325773 C13.838141769264487 19.18442109185685, 13.565877778852208 19.228438622387927, 12.876417152847878 19.3399052695533 M14.110405759676766 19.140403561325773 C13.8463335409918 19.183096709732116, 13.582261322306834 19.225789858138462, 12.876417152847878 19.3399052695533 M12.876417152847878 19.3399052695533 C12.557560204367848 19.370665015891582, 12.238703255887815 19.401424762229865, 11.6321817896239 19.45993515863156 M12.876417152847878 19.3399052695533 C12.622215007204261 19.364427844820728, 12.368012861560644 19.38895042008816, 11.6321817896239 19.45993515863156 M11.6321817896239 19.45993515863156 C11.138267463774527 19.475774029715634, 10.644353137925155 19.49161290079971, 10.382812500000004 19.5 M11.6321817896239 19.45993515863156 C11.307404966501537 19.470350119209357, 10.982628143379172 19.480765079787155, 10.382812500000004 19.5 M10.382812500000004 19.5 C10.382812500000004 19.5, 10.382812500000002 19.5, 10.3828125 19.5 M10.382812500000004 19.5 C10.382812500000002 19.5, 10.382812500000002 19.5, 10.3828125 19.5 M10.3828125 19.5 C2.731177358584171 19.5, -4.920457782831658 19.5, -10.382812499999996 19.5 M10.3828125 19.5 C2.977455101947477 19.5, -4.427902296105046 19.5, -10.382812499999996 19.5 M-10.382812499999996 19.5 C-10.857269307514768 19.484785093657152, -11.33172611502954 19.469570187314307, -11.632181789623893 19.45993515863156 M-10.382812499999996 19.5 C-10.791785056879473 19.486885046117667, -11.20075761375895 19.47377009223533, -11.632181789623893 19.45993515863156 M-11.632181789623893 19.45993515863156 C-11.976009018263406 19.426766559397446, -12.319836246902922 19.393597960163333, -12.876417152847871 19.3399052695533 M-11.632181789623893 19.45993515863156 C-11.950765574296847 19.429201764077217, -12.269349358969802 19.398468369522877, -12.876417152847871 19.3399052695533 M-12.876417152847871 19.3399052695533 C-13.171584779828407 19.29218485668222, -13.466752406808943 19.24446444381114, -14.110405759676759 19.140403561325773 M-12.876417152847871 19.3399052695533 C-13.34789662562415 19.263680124772748, -13.81937609840043 19.1874549799922, -14.110405759676759 19.140403561325773 M-14.110405759676759 19.140403561325773 C-14.405610419124546 19.07302502419725, -14.700815078572333 19.005646487068724, -15.329076886235388 18.862249829261074 M-14.110405759676759 19.140403561325773 C-14.42760512629252 19.06800487581504, -14.74480449290828 18.9956061903043, -15.329076886235388 18.862249829261074 M-15.329076886235388 18.862249829261074 C-15.773168147858236 18.730445873894016, -16.217259409481084 18.598641918526955, -16.52742275146059 18.506587066708043 M-15.329076886235388 18.862249829261074 C-15.687617944204021 18.755836725276403, -16.046159002172654 18.64942362129173, -16.52742275146059 18.506587066708043 M-16.52742275146059 18.506587066708043 C-16.945513002291168 18.352725989618477, -17.36360325312175 18.198864912528915, -17.700519095147797 18.074876768247425 M-16.52742275146059 18.506587066708043 C-16.94279474839042 18.353726332181218, -17.35816674532025 18.200865597654392, -17.700519095147797 18.074876768247425 M-17.700519095147797 18.074876768247425 C-18.113198299425314 17.892195926207414, -18.52587750370283 17.709515084167403, -18.84354541279238 17.568892924097174 M-17.700519095147797 18.074876768247425 C-18.08455862585983 17.904873860129122, -18.468598156571865 17.734870952010823, -18.84354541279238 17.568892924097174 M-18.84354541279238 17.568892924097174 C-19.281422484735135 17.34045273613829, -19.71929955667789 17.112012548179404, -19.95180476407678 16.990714730406097 M-18.84354541279238 17.568892924097174 C-19.17895624640511 17.393909307042303, -19.514367080017845 17.218925689987437, -19.95180476407678 16.990714730406097 M-19.95180476407678 16.990714730406097 C-20.180585640834995 16.8520264184496, -20.409366517593213 16.713338106493104, -21.020743073605686 16.3427180453909 M-19.95180476407678 16.990714730406097 C-20.18729639591568 16.847958319282913, -20.422788027754585 16.705201908159733, -21.020743073605686 16.3427180453909 M-21.020743073605686 16.3427180453909 C-21.32260363556106 16.132153184703952, -21.62446419751643 15.921588324017005, -22.045967844578712 15.627565626425156 M-21.020743073605686 16.3427180453909 C-21.266055320285027 16.171598841503396, -21.511367566964367 16.000479637615896, -22.045967844578712 15.627565626425156 M-22.045967844578712 15.627565626425156 C-22.386417226465767 15.356066304108765, -22.726866608352825 15.084566981792374, -23.02326620850187 14.848196188198125 M-22.045967844578712 15.627565626425156 C-22.407530667342883 15.339228896861524, -22.769093490107053 15.050892167297892, -23.02326620850187 14.848196188198125 M-23.02326620850187 14.848196188198125 C-23.33782169637453 14.562525216794315, -23.65237718424719 14.276854245390505, -23.948622236767974 14.007812326905697 M-23.02326620850187 14.848196188198125 C-23.3714476363377 14.531987027813383, -23.719629064173528 14.215777867428638, -23.948622236767974 14.007812326905697 M-23.948622236767974 14.007812326905697 C-24.21525200557361 13.732495199902749, -24.481881774379247 13.4571780728998, -24.818233442968655 13.109867360095677 M-23.948622236767974 14.007812326905697 C-24.293439787276657 13.65175989595809, -24.638257337785344 13.295707465010484, -24.818233442968655 13.109867360095677 M-24.818233442968655 13.109867360095677 C-25.02394227595831 12.86823005970184, -25.22965110894796 12.626592759308005, -25.62852640812658 12.158051136245307 M-24.818233442968655 13.109867360095677 C-25.12626188463892 12.748039625194924, -25.43429032630919 12.386211890294168, -25.62852640812658 12.158051136245307 M-25.62852640812658 12.158051136245307 C-25.80246385933403 11.924990797655111, -25.97640131054148 11.691930459064915, -26.376171464640635 11.156274872382316 M-25.62852640812658 12.158051136245307 C-25.906628029232998 11.785420299541592, -26.184729650339413 11.412789462837878, -26.376171464640635 11.156274872382316 M-26.376171464640635 11.156274872382316 C-26.55076399967651 10.888053853907085, -26.725356534712382 10.619832835431854, -27.058096378604244 10.108655082055249 M-26.376171464640635 11.156274872382316 C-26.556423993952915 10.87935858277725, -26.736676523265196 10.602442293172187, -27.058096378604244 10.108655082055249 M-27.058096378604244 10.108655082055249 C-27.236832676804216 9.791290685588418, -27.415568975004184 9.473926289121588, -27.6714989742735 9.019496659696289 M-27.058096378604244 10.108655082055249 C-27.284696747595884 9.706303181135079, -27.51129711658752 9.303951280214909, -27.6714989742735 9.019496659696289 M-27.6714989742735 9.019496659696289 C-27.79418054100061 8.764745761422427, -27.916862107727724 8.509994863148565, -28.21385864880834 7.893275190886686 M-27.6714989742735 9.019496659696289 C-27.82746633857812 8.695627090550753, -27.983433702882742 8.371757521405218, -28.21385864880834 7.893275190886686 M-28.21385864880834 7.893275190886686 C-28.400670605254327 7.4318460467016285, -28.587482561700313 6.970416902516571, -28.682946729970325 6.73461856121551 M-28.21385864880834 7.893275190886686 C-28.376140167587522 7.492436702002383, -28.538421686366707 7.09159821311808, -28.682946729970325 6.73461856121551 M-28.682946729970325 6.73461856121551 C-28.81597023650848 6.333972953940089, -28.94899374304664 5.933327346664668, -29.07683563421488 5.5482879393051325 M-28.682946729970325 6.73461856121551 C-28.811653965949116 6.346972873160577, -28.940361201927907 5.959327185105643, -29.07683563421488 5.5482879393051325 M-29.07683563421488 5.5482879393051325 C-29.197048939249576 5.089862506431856, -29.317262244284276 4.631437073558578, -29.393906787545557 4.339158212148136 M-29.07683563421488 5.5482879393051325 C-29.193611476627755 5.102971041214591, -29.31038731904063 4.6576541431240495, -29.393906787545557 4.339158212148136 M-29.393906787545557 4.339158212148136 C-29.45249374118119 4.038326587586207, -29.51108069481682 3.7374949630242775, -29.632857276581777 3.112197953150904 M-29.393906787545557 4.339158212148136 C-29.471390618048808 3.9412951187273215, -29.54887444855206 3.543432025306507, -29.632857276581777 3.112197953150904 M-29.632857276581777 3.112197953150904 C-29.685121840595407 2.706844315466705, -29.73738640460904 2.301490677782506, -29.792705202509364 1.872449005199809 M-29.632857276581777 3.112197953150904 C-29.68608524011564 2.6993723790325426, -29.739313203649502 2.286546804914181, -29.792705202509364 1.872449005199809 M-29.792705202509364 1.872449005199809 C-29.819285823866693 1.4584343720680084, -29.845866445224026 1.0444197389362078, -29.872793715913414 0.6250057626472781 M-29.792705202509364 1.872449005199809 C-29.817913096021393 1.479815716304549, -29.84312098953342 1.0871824274092887, -29.872793715913414 0.6250057626472781 M-29.872793715913414 0.6250057626472781 C-29.872793715913414 0.1257660435830702, -29.872793715913414 -0.37347367548113775, -29.872793715913414 -0.6250057626472687 M-29.872793715913414 0.6250057626472781 C-29.872793715913414 0.33972761014309355, -29.872793715913414 0.05444945763890896, -29.872793715913414 -0.6250057626472687 M-29.872793715913414 -0.6250057626472687 C-29.8518319651124 -0.9515019513937979, -29.830870214311382 -1.277998140140327, -29.792705202509367 -1.8724490051997822 M-29.872793715913414 -0.6250057626472687 C-29.850079280117978 -0.9788014349237781, -29.82736484432254 -1.3325971072002876, -29.792705202509367 -1.8724490051997822 M-29.792705202509367 -1.8724490051997822 C-29.747637787395735 -2.221982977253382, -29.702570372282107 -2.5715169493069814, -29.632857276581777 -3.112197953150895 M-29.792705202509367 -1.8724490051997822 C-29.742376224101903 -2.2627906231471577, -29.69204724569444 -2.653132241094533, -29.632857276581777 -3.112197953150895 M-29.632857276581777 -3.112197953150895 C-29.551527974893492 -3.529806728366237, -29.470198673205207 -3.9474155035815786, -29.39390678754556 -4.339158212148126 M-29.632857276581777 -3.112197953150895 C-29.570197145936305 -3.433944480792094, -29.507537015290833 -3.755691008433293, -29.39390678754556 -4.339158212148126 M-29.39390678754556 -4.339158212148126 C-29.31902358481472 -4.624720318746182, -29.24414038208388 -4.9102824253442385, -29.076835634214884 -5.548287939305123 M-29.39390678754556 -4.339158212148126 C-29.306508792347937 -4.67244464636739, -29.219110797150314 -5.005731080586655, -29.076835634214884 -5.548287939305123 M-29.076835634214884 -5.548287939305123 C-28.940132110396128 -5.9600171722985795, -28.803428586577372 -6.371746405292035, -28.682946729970332 -6.734618561215485 M-29.076835634214884 -5.548287939305123 C-28.93010923718819 -5.990204469472905, -28.7833828401615 -6.432120999640687, -28.682946729970332 -6.734618561215485 M-28.682946729970332 -6.734618561215485 C-28.521602176175115 -7.13314272847441, -28.360257622379898 -7.531666895733334, -28.213858648808344 -7.893275190886676 M-28.682946729970332 -6.734618561215485 C-28.559158956308444 -7.040376755434144, -28.435371182646552 -7.346134949652802, -28.213858648808344 -7.893275190886676 M-28.213858648808344 -7.893275190886676 C-28.0512945628752 -8.230842993641074, -27.888730476942058 -8.568410796395472, -27.671498974273504 -9.019496659696282 M-28.213858648808344 -7.893275190886676 C-28.102937989087817 -8.123604314118273, -27.992017329367286 -8.353933437349871, -27.671498974273504 -9.019496659696282 M-27.671498974273504 -9.019496659696282 C-27.45046345357301 -9.41196760897353, -27.229427932872518 -9.804438558250776, -27.058096378604247 -10.108655082055243 M-27.671498974273504 -9.019496659696282 C-27.51306925892831 -9.300804662039964, -27.354639543583122 -9.582112664383647, -27.058096378604247 -10.108655082055243 M-27.058096378604247 -10.108655082055243 C-26.902208186195658 -10.348141207435706, -26.746319993787072 -10.58762733281617, -26.37617146464064 -11.156274872382308 M-27.058096378604247 -10.108655082055243 C-26.90019331512799 -10.35123659046429, -26.742290251651728 -10.593818098873333, -26.37617146464064 -11.156274872382308 M-26.37617146464064 -11.156274872382308 C-26.157862133276836 -11.448789488020575, -25.939552801913035 -11.741304103658843, -25.628526408126586 -12.158051136245302 M-26.37617146464064 -11.156274872382308 C-26.090289643236908 -11.539330468693597, -25.804407821833173 -11.922386065004888, -25.628526408126586 -12.158051136245302 M-25.628526408126586 -12.158051136245302 C-25.384960207895414 -12.444157854346244, -25.141394007664246 -12.730264572447187, -24.818233442968662 -13.10986736009567 M-25.628526408126586 -12.158051136245302 C-25.341859706159187 -12.494786156173644, -25.055193004191786 -12.831521176101987, -24.818233442968662 -13.10986736009567 M-24.818233442968662 -13.10986736009567 C-24.50195415396002 -13.43645169300964, -24.18567486495138 -13.76303602592361, -23.948622236767996 -14.007812326905677 M-24.818233442968662 -13.10986736009567 C-24.542611193643783 -13.394469961531119, -24.266988944318904 -13.679072562966569, -23.948622236767996 -14.007812326905677 M-23.948622236767996 -14.007812326905677 C-23.590213457902628 -14.333309696894565, -23.231804679037264 -14.658807066883453, -23.023266208501887 -14.848196188198107 M-23.948622236767996 -14.007812326905677 C-23.74330450727914 -14.194276456418017, -23.53798677779029 -14.380740585930358, -23.023266208501887 -14.848196188198107 M-23.023266208501887 -14.848196188198107 C-22.773351007548705 -15.047496910435472, -22.52343580659552 -15.246797632672836, -22.04596784457872 -15.627565626425149 M-23.023266208501887 -14.848196188198107 C-22.650944831743622 -15.145112578274883, -22.27862345498536 -15.442028968351659, -22.04596784457872 -15.627565626425149 M-22.04596784457872 -15.627565626425149 C-21.66621773050699 -15.892462866884102, -21.28646761643526 -16.157360107343056, -21.02074307360571 -16.342718045390885 M-22.04596784457872 -15.627565626425149 C-21.816049224911524 -15.787946902488352, -21.586130605244332 -15.948328178551558, -21.02074307360571 -16.342718045390885 M-21.02074307360571 -16.342718045390885 C-20.789925928791426 -16.48264075500941, -20.55910878397714 -16.622563464627934, -19.95180476407679 -16.99071473040609 M-21.02074307360571 -16.342718045390885 C-20.682037264794694 -16.548043497148395, -20.343331455983673 -16.7533689489059, -19.95180476407679 -16.99071473040609 M-19.95180476407679 -16.99071473040609 C-19.65646658745538 -17.144792467976348, -19.36112841083397 -17.29887020554661, -18.843545412792388 -17.56889292409717 M-19.95180476407679 -16.99071473040609 C-19.69953405101647 -17.122324199822554, -19.447263337956155 -17.253933669239018, -18.843545412792388 -17.56889292409717 M-18.843545412792388 -17.56889292409717 C-18.543198662338394 -17.701847521053356, -18.2428519118844 -17.83480211800954, -17.700519095147804 -18.07487676824742 M-18.843545412792388 -17.56889292409717 C-18.424911636376763 -17.754209678586616, -18.006277859961134 -17.939526433076058, -17.700519095147804 -18.07487676824742 M-17.700519095147804 -18.07487676824742 C-17.363306659103955 -18.198974061869144, -17.026094223060106 -18.32307135549087, -16.52742275146062 -18.506587066708033 M-17.700519095147804 -18.07487676824742 C-17.31108544894209 -18.218191949936287, -16.921651802736378 -18.361507131625153, -16.52742275146062 -18.506587066708033 M-16.52742275146062 -18.506587066708033 C-16.077272678187715 -18.640189245569477, -15.627122604914812 -18.773791424430925, -15.329076886235413 -18.862249829261067 M-16.52742275146062 -18.506587066708033 C-16.257160245020327 -18.586799559982666, -15.986897738580032 -18.667012053257302, -15.329076886235413 -18.862249829261067 M-15.329076886235413 -18.862249829261067 C-14.998789949000777 -18.93763566736118, -14.668503011766141 -19.013021505461296, -14.110405759676768 -19.140403561325773 M-15.329076886235413 -18.862249829261067 C-14.99616774050139 -18.93823416933966, -14.663258594767369 -19.01421850941825, -14.110405759676768 -19.140403561325773 M-14.110405759676768 -19.140403561325773 C-13.809112786809756 -19.18911427261701, -13.507819813942744 -19.237824983908247, -12.87641715284788 -19.3399052695533 M-14.110405759676768 -19.140403561325773 C-13.740661758530797 -19.2001809040235, -13.370917757384824 -19.259958246721226, -12.87641715284788 -19.3399052695533 M-12.87641715284788 -19.3399052695533 C-12.510778882282578 -19.375177953770375, -12.145140611717276 -19.410450637987452, -11.632181789623903 -19.45993515863156 M-12.87641715284788 -19.3399052695533 C-12.617360299943098 -19.364896172591575, -12.358303447038315 -19.38988707562985, -11.632181789623903 -19.45993515863156 M-11.632181789623903 -19.45993515863156 C-11.29499217513078 -19.470748173268586, -10.957802560637655 -19.48156118790561, -10.382812500000005 -19.5 M-11.632181789623903 -19.45993515863156 C-11.229933793531243 -19.472834468938025, -10.827685797438585 -19.485733779244487, -10.382812500000005 -19.5 M-10.382812500000005 -19.5 C-10.382812500000004 -19.5, -10.382812500000004 -19.5, -10.3828125 -19.5 M-10.382812500000005 -19.5 C-10.382812500000004 -19.5, -10.382812500000002 -19.5, -10.3828125 -19.5" stroke="#9370DB" stroke-width="1.3" fill="none" stroke-dasharray="0 0" style=""/></g><g class="label" style="" transform="translate(-17.5078125, -12)"><rect/><foreignObject width="35.015625" height="24"><div xmlns="http://www.w3.org/1999/xhtml" style="display: table-cell; white-space: nowrap; line-height: 1.5; max-width: 200px; text-align: center;"><span class="nodeLabel"><p>Start</p></span></div></foreignObject></g></g><g class="node default" id="flowchart-n_57fce957e0952f4e_Step_2-1" transform="translate(75.796875, 124)"><rect class="basic label-container" style="" x="-67.796875" y="-27" width="135.59375" height="54"/><g class="label" style="" transform="translate(-37.796875, -12)"><rect/><foreignObject width="75.59375" height="24"><div xmlns="http://www.w3.org/1999/xhtml" style="display: table-cell; white-space: nowrap; line-height: 1.5; max-width: 200px; text-align: center;"><span class="nodeLabel"><p>fetch-data</p></span></div></foreignObject></g></g><g class="node default" id="flowchart-n_57fce957e0952f4e_Step_3-2" transform="translate(75.796875, 228)"><rect class="basic label-container" style="" x="-67.796875" y="-27" width="135.59375" height="54"/><g class="label" style="" transform="translate(-37.796875, -12)"><rect/><foreignObject width="75.59375" height="24"><div xmlns="http://www.w3.org/1999/xhtml" style="display: table-cell; white-space: nowrap; line-height: 1.5; max-width: 200px; text-align: center;"><span class="nodeLabel"><p>fetch-data</p></span></div></foreignObject></g></g><g class="node default" id="flowchart-n_5a10c6e4_cd1d_38_end-3" transform="translate(75.796875, 324.5)"><g class="basic label-container outer-path"><path d="M-19.859375 -19.5 C-10.516370112038427 -19.5, -1.1733652240768535 -19.5, 19.859375 -19.5 C19.859375 -19.5, 19.859375 -19.5, 19.859375 -19.5 C20.155914324949244 -19.49049056102766, 20.452453649898487 -19.48098112205532, 21.1087442896239 -19.45993515863156 C21.40347181269537 -19.43150314894256, 21.698199335766837 -19.403071139253562, 22.352979652847864 -19.3399052695533 C22.815979048424023 -19.265051117890486, 23.27897844400018 -19.19019696622767, 23.58696825967676 -19.140403561325776 C23.853190203327326 -19.079640139948072, 24.11941214697789 -19.018876718570368, 24.80563938623539 -18.862249829261074 C25.234936672784283 -18.734836648040805, 25.66423395933317 -18.607423466820535, 26.003985251460602 -18.50658706670804 C26.469573470716007 -18.33524629817173, 26.935161689971416 -18.16390552963542, 27.177081595147794 -18.074876768247425 C27.63156844897439 -17.873688919931897, 28.086055302800993 -17.672501071616367, 28.32010791279238 -17.568892924097174 C28.735712114268246 -17.352072478394412, 29.151316315744115 -17.13525203269165, 29.428367264076783 -16.990714730406097 C29.72293130904165 -16.812148275297922, 30.017495354006513 -16.63358182018975, 30.497305573605697 -16.342718045390892 C30.788472617931365 -16.139612519687507, 31.079639662257037 -15.936506993984121, 31.522530344578712 -15.627565626425154 C31.742260735797547 -15.452336486699412, 31.96199112701638 -15.277107346973672, 32.499828708501866 -14.848196188198123 C32.698946738990415 -14.667362461282814, 32.898064769478964 -14.486528734367502, 33.42518473676799 -14.007812326905688 C33.64693503185001 -13.778836941195685, 33.86868532693204 -13.54986155548568, 34.29479594296865 -13.10986736009568 C34.51213255386091 -12.854571410138137, 34.72946916475317 -12.599275460180595, 35.10508890812658 -12.158051136245305 C35.33371713961094 -11.851710134516631, 35.562345371095304 -11.545369132787958, 35.852733964640635 -11.156274872382312 C36.04333103221884 -10.863466594103324, 36.23392809979704 -10.570658315824335, 36.53465887860425 -10.108655082055241 C36.67382024450479 -9.861559985282486, 36.81298161040534 -9.614464888509731, 37.148061474273504 -9.019496659696287 C37.357203802550636 -8.585208140099871, 37.56634613082776 -8.150919620503455, 37.69042114880834 -7.893275190886684 C37.869454926986194 -7.451058297404763, 38.04848870516405 -7.008841403922841, 38.159509229970325 -6.734618561215508 C38.28217164167393 -6.3651789207654765, 38.40483405337754 -5.995739280315446, 38.55339813421488 -5.548287939305138 C38.66393067425429 -5.126779459028998, 38.7744632142937 -4.705270978752858, 38.87046928754556 -4.339158212148133 C38.94541528496686 -3.954326355231892, 39.02036128238817 -3.569494498315651, 39.109419776581774 -3.1121979531509023 C39.16335950441269 -2.693852075698345, 39.21729923224361 -2.2755061982457874, 39.26926770250937 -1.872449005199798 C39.29231405236546 -1.5134835035123826, 39.31536040222155 -1.1545180018249672, 39.34935621591342 -0.6250057626472757 C39.34935621591342 -0.3132978251649213, 39.34935621591342 -0.0015898876825668484, 39.34935621591342 0.625005762647271 C39.32629119745915 0.9842620428202935, 39.30322617900488 1.343518322993316, 39.26926770250937 1.8724490051997846 C39.22478054193681 2.2174826376170067, 39.18029338136426 2.562516270034229, 39.109419776581774 3.1121979531508885 C39.04836758873031 3.425688034383701, 38.98731540087884 3.7391781156165136, 38.87046928754556 4.339158212148129 C38.76033104091507 4.75916308076825, 38.65019279428457 5.179167949388371, 38.55339813421489 5.548287939305125 C38.406230228771086 5.991534222480419, 38.259062323327285 6.434780505655712, 38.159509229970325 6.734618561215495 C38.04466669602796 7.0182818403824925, 37.92982416208559 7.30194511954949, 37.69042114880834 7.893275190886679 C37.56059378916402 8.162864481048608, 37.43076642951969 8.432453771210536, 37.148061474273504 9.019496659696284 C36.969751102492786 9.336104780676006, 36.79144073071206 9.652712901655729, 36.53465887860425 10.108655082055236 C36.34473067397368 10.400435807231812, 36.1548024693431 10.692216532408388, 35.85273396464064 11.156274872382301 C35.69114452739144 11.372789997195664, 35.529555090142225 11.589305122009026, 35.10508890812658 12.158051136245302 C34.80735922619603 12.507781361939763, 34.50962954426547 12.857511587634223, 34.29479594296866 13.10986736009567 C34.0180903074368 13.39558864673749, 33.74138467190494 13.68130993337931, 33.42518473676799 14.007812326905684 C33.21472422727366 14.198946993148489, 33.004263717779345 14.390081659391296, 32.49982870850189 14.848196188198111 C32.15329976105122 15.124543802267445, 31.806770813600558 15.40089141633678, 31.522530344578715 15.627565626425152 C31.312600072692135 15.774003896358229, 31.102669800805558 15.920442166291306, 30.497305573605708 16.34271804539089 C30.18402094845891 16.53263302621969, 29.870736323312112 16.72254800704849, 29.428367264076787 16.990714730406093 C29.010495837151513 17.208717986173586, 28.59262441022624 17.426721241941078, 28.320107912792388 17.56889292409717 C27.884433020635285 17.761753275018627, 27.448758128478186 17.954613625940087, 27.177081595147804 18.07487676824742 C26.768975263537858 18.225063670773455, 26.36086893192791 18.37525057329949, 26.003985251460616 18.506587066708033 C25.71991763231253 18.590896844969826, 25.43585001316444 18.675206623231617, 24.805639386235413 18.86224982926107 C24.499063675018665 18.932223734752814, 24.192487963801913 19.002197640244553, 23.586968259676766 19.140403561325773 C23.166182875644758 19.20843287897668, 22.745397491612746 19.276462196627584, 22.35297965284788 19.3399052695533 C22.020695405893882 19.371960331226674, 21.688411158939886 19.404015392900053, 21.1087442896239 19.45993515863156 C20.727828414646236 19.47215038933432, 20.346912539668573 19.48436562003708, 19.859375000000004 19.5 C19.859375000000004 19.5, 19.859375 19.5, 19.859375 19.5 C11.82202004413725 19.5, 3.784665088274501 19.5, -19.859374999999996 19.5 C-20.1439193481412 19.490875216587085, -20.428463696282403 19.481750433174174, -21.108744289623893 19.45993515863156 C-21.569729565054118 19.415464463526714, -22.030714840484343 19.370993768421865, -22.35297965284787 19.3399052695533 C-22.68113072950183 19.286852348329493, -23.00928180615579 19.233799427105687, -23.58696825967676 19.140403561325773 C-23.858851436211385 19.07834800048528, -24.130734612746007 19.016292439644786, -24.805639386235388 18.862249829261074 C-25.281492264739335 18.721019192723833, -25.75734514324328 18.579788556186593, -26.00398525146059 18.506587066708043 C-26.427706419427526 18.350653760060673, -26.85142758739446 18.1947204534133, -27.177081595147797 18.074876768247425 C-27.51761252306349 17.924133827950218, -27.85814345097918 17.77339088765301, -28.32010791279238 17.568892924097174 C-28.66156302884306 17.390756008765976, -29.003018144893737 17.212619093434775, -29.42836726407678 16.990714730406097 C-29.818320995903072 16.754322486550503, -30.208274727729364 16.51793024269491, -30.497305573605686 16.3427180453909 C-30.8178295257392 16.11913441164082, -31.138353477872712 15.89555077789074, -31.522530344578712 15.627565626425156 C-31.903307515217282 15.32390596574696, -32.28408468585585 15.020246305068763, -32.499828708501866 14.848196188198125 C-32.80433166025021 14.57165466412689, -33.10883461199855 14.295113140055653, -33.425184736767974 14.007812326905697 C-33.75994713199159 13.662142669333528, -34.0947095272152 13.316473011761362, -34.294795942968655 13.109867360095677 C-34.581215395559134 12.77342277335435, -34.86763484814961 12.436978186613024, -35.105088908126575 12.158051136245307 C-35.3027185531156 11.89324541639107, -35.50034819810461 11.628439696536832, -35.852733964640635 11.156274872382316 C-36.05894008364394 10.839486899497189, -36.26514620264724 10.522698926612062, -36.53465887860425 10.108655082055249 C-36.70491753866459 9.806343590559283, -36.87517619872493 9.504032099063316, -37.148061474273504 9.019496659696289 C-37.262562385607865 8.781733067383454, -37.377063296942225 8.54396947507062, -37.69042114880834 7.893275190886686 C-37.78452603977135 7.660834290813757, -37.87863093073436 7.428393390740829, -38.159509229970325 6.73461856121551 C-38.27783047601656 6.378253820054651, -38.396151722062804 6.021889078893792, -38.55339813421488 5.5482879393051325 C-38.63133969557742 5.251062985743421, -38.709281256939946 4.95383803218171, -38.87046928754556 4.339158212148136 C-38.948158808865806 3.94023893985483, -39.025848330186044 3.541319667561524, -39.109419776581774 3.112197953150904 C-39.15138406424424 2.786731224826705, -39.193348351906714 2.4612644965025052, -39.26926770250937 1.872449005199809 C-39.29742617663345 1.4338580416060354, -39.32558465075753 0.9952670780122619, -39.34935621591342 0.6250057626472781 C-39.34935621591342 0.3103581000353727, -39.34935621591342 -0.0042895625765327905, -39.34935621591342 -0.6250057626472687 C-39.3319593285457 -0.8959763259141733, -39.31456244117798 -1.166946889181078, -39.26926770250937 -1.8724490051997822 C-39.21280346589214 -2.3103744742783436, -39.156339229274906 -2.7482999433569053, -39.109419776581774 -3.112197953150895 C-39.04262340661004 -3.455183195537953, -38.97582703663831 -3.79816843792501, -38.87046928754556 -4.339158212148126 C-38.78941513686312 -4.648252817791388, -38.708360986180686 -4.9573474234346495, -38.55339813421489 -5.548287939305123 C-38.42173525421559 -5.944835556231891, -38.290072374216294 -6.341383173158659, -38.15950922997033 -6.734618561215485 C-37.99794700654642 -7.133680376665639, -37.83638478312251 -7.532742192115792, -37.69042114880834 -7.893275190886676 C-37.57689405139303 -8.129016637760323, -37.46336695397772 -8.36475808463397, -37.148061474273504 -9.019496659696282 C-36.96822360377231 -9.338817009330231, -36.788385733271106 -9.658137358964183, -36.53465887860425 -10.108655082055243 C-36.30240270628943 -10.465462932245634, -36.0701465339746 -10.822270782436025, -35.85273396464064 -11.156274872382308 C-35.61772388951495 -11.471166963192449, -35.38271381438926 -11.786059054002589, -35.10508890812659 -12.158051136245302 C-34.78231625066159 -12.537198265988193, -34.459543593196585 -12.916345395731085, -34.29479594296866 -13.10986736009567 C-34.06495958556575 -13.347192269030048, -33.83512322816284 -13.584517177964427, -33.425184736767996 -14.007812326905677 C-33.2113163594967 -14.202041928496293, -32.997447982225395 -14.39627153008691, -32.49982870850189 -14.848196188198107 C-32.145613186372664 -15.130673641025252, -31.791397664243437 -15.413151093852395, -31.52253034457872 -15.627565626425149 C-31.235502426360817 -15.827783876935637, -30.948474508142915 -16.028002127446126, -30.49730557360571 -16.342718045390885 C-30.270032197432222 -16.480492501633865, -30.04275882125873 -16.61826695787684, -29.42836726407679 -16.99071473040609 C-29.0700497903617 -17.177648726929956, -28.71173231664661 -17.364582723453825, -28.320107912792388 -17.56889292409717 C-27.910477778021427 -17.750224033514062, -27.500847643250466 -17.93155514293095, -27.177081595147804 -18.07487676824742 C-26.745028562584853 -18.233876278085038, -26.3129755300219 -18.392875787922655, -26.00398525146062 -18.506587066708033 C-25.67511468037743 -18.604194125928668, -25.34624410929424 -18.701801185149307, -24.805639386235413 -18.862249829261067 C-24.318770815169604 -18.973374403492496, -23.83190224410379 -19.084498977723925, -23.586968259676766 -19.140403561325773 C-23.1145521038568 -19.21678014175674, -22.642135948036827 -19.29315672218771, -22.352979652847882 -19.3399052695533 C-21.9665573062544 -19.377182968588308, -21.580134959660924 -19.414460667623313, -21.108744289623903 -19.45993515863156 C-20.823441751925774 -19.469084255707838, -20.538139214227648 -19.478233352784116, -19.859375000000007 -19.5 C-19.859375000000004 -19.5, -19.859375000000004 -19.5, -19.859375 -19.5" stroke="none" stroke-width="0" fill="#ECECFF" style=""/><path d="M-19.859375 -19.5 C-11.496713108148715 -19.5, -3.134051216297429 -19.5, 19.859375 -19.5 M-19.859375 -19.5 C-6.437934997773413 -19.5, 6.983505004453175 -19.5, 19.859375 -19.5 M19.859375 -19.5 C19.859375 -19.5, 19.859375 -19.5, 19.859375 -19.5 M19.859375 -19.5 C19.859375 -19.5, 19.859375 -19.5, 19.859375 -19.5 M19.859375 -19.5 C20.148568566637405 -19.490726125199068, 20.43776213327481 -19.481452250398135, 21.1087442896239 -19.45993515863156 M19.859375 -19.5 C20.20159875654207 -19.48902555022583, 20.543822513084137 -19.47805110045166, 21.1087442896239 -19.45993515863156 M21.1087442896239 -19.45993515863156 C21.585523988418753 -19.4139407945003, 22.06230368721361 -19.36794643036904, 22.352979652847864 -19.3399052695533 M21.1087442896239 -19.45993515863156 C21.456735754962605 -19.426364840491303, 21.804727220301313 -19.392794522351046, 22.352979652847864 -19.3399052695533 M22.352979652847864 -19.3399052695533 C22.82367423493981 -19.263807019811676, 23.294368817031753 -19.187708770070053, 23.58696825967676 -19.140403561325776 M22.352979652847864 -19.3399052695533 C22.649059770845454 -19.292037332211056, 22.945139888843045 -19.244169394868816, 23.58696825967676 -19.140403561325776 M23.58696825967676 -19.140403561325776 C23.90272198803789 -19.06833483331299, 24.21847571639902 -18.9962661053002, 24.80563938623539 -18.862249829261074 M23.58696825967676 -19.140403561325776 C23.862558917240037 -19.07750179213407, 24.138149574803315 -19.014600022942357, 24.80563938623539 -18.862249829261074 M24.80563938623539 -18.862249829261074 C25.19735402264109 -18.74599098132795, 25.589068659046784 -18.62973213339482, 26.003985251460602 -18.50658706670804 M24.80563938623539 -18.862249829261074 C25.170677853459143 -18.75390832831508, 25.535716320682894 -18.645566827369088, 26.003985251460602 -18.50658706670804 M26.003985251460602 -18.50658706670804 C26.334733062560716 -18.38486881482395, 26.665480873660826 -18.263150562939856, 27.177081595147794 -18.074876768247425 M26.003985251460602 -18.50658706670804 C26.467578112971637 -18.335980608266542, 26.931170974482672 -18.16537414982505, 27.177081595147794 -18.074876768247425 M27.177081595147794 -18.074876768247425 C27.51337428511712 -17.926009970166213, 27.849666975086446 -17.777143172085, 28.32010791279238 -17.568892924097174 M27.177081595147794 -18.074876768247425 C27.50600200901947 -17.929273458103843, 27.834922422891147 -17.783670147960258, 28.32010791279238 -17.568892924097174 M28.32010791279238 -17.568892924097174 C28.626702548227787 -17.40894269917376, 28.933297183663193 -17.248992474250347, 29.428367264076783 -16.990714730406097 M28.32010791279238 -17.568892924097174 C28.660893517564126 -17.391105292371353, 29.00167912233587 -17.213317660645533, 29.428367264076783 -16.990714730406097 M29.428367264076783 -16.990714730406097 C29.731636418435457 -16.806871186826495, 30.034905572794134 -16.623027643246893, 30.497305573605697 -16.342718045390892 M29.428367264076783 -16.990714730406097 C29.729173656206882 -16.808364127762253, 30.029980048336984 -16.62601352511841, 30.497305573605697 -16.342718045390892 M30.497305573605697 -16.342718045390892 C30.890862825489855 -16.068189543295354, 31.284420077374016 -15.793661041199812, 31.522530344578712 -15.627565626425154 M30.497305573605697 -16.342718045390892 C30.781578572651078 -16.144421507236626, 31.06585157169646 -15.94612496908236, 31.522530344578712 -15.627565626425154 M31.522530344578712 -15.627565626425154 C31.75125282880578 -15.445165531814993, 31.979975313032842 -15.262765437204832, 32.499828708501866 -14.848196188198123 M31.522530344578712 -15.627565626425154 C31.88137165035215 -15.341399234239022, 32.24021295612559 -15.05523284205289, 32.499828708501866 -14.848196188198123 M32.499828708501866 -14.848196188198123 C32.767986806727784 -14.604662098463827, 33.03614490495371 -14.361128008729528, 33.42518473676799 -14.007812326905688 M32.499828708501866 -14.848196188198123 C32.76125941610324 -14.610771736632033, 33.02269012370462 -14.373347285065943, 33.42518473676799 -14.007812326905688 M33.42518473676799 -14.007812326905688 C33.62423928328514 -13.802272164944528, 33.82329382980229 -13.596732002983368, 34.29479594296865 -13.10986736009568 M33.42518473676799 -14.007812326905688 C33.67674474439679 -13.74805596556822, 33.928304752025596 -13.48829960423075, 34.29479594296865 -13.10986736009568 M34.29479594296865 -13.10986736009568 C34.56011743570344 -12.79820563750877, 34.82543892843824 -12.48654391492186, 35.10508890812658 -12.158051136245305 M34.29479594296865 -13.10986736009568 C34.511111635353835 -12.855770639108451, 34.72742732773903 -12.601673918121222, 35.10508890812658 -12.158051136245305 M35.10508890812658 -12.158051136245305 C35.27077662434546 -11.936044690973478, 35.436464340564335 -11.714038245701653, 35.852733964640635 -11.156274872382312 M35.10508890812658 -12.158051136245305 C35.290518490260595 -11.90959238916818, 35.47594807239461 -11.661133642091055, 35.852733964640635 -11.156274872382312 M35.852733964640635 -11.156274872382312 C36.10122557558942 -10.774525028624456, 36.3497171865382 -10.392775184866599, 36.53465887860425 -10.108655082055241 M35.852733964640635 -11.156274872382312 C36.01586769794668 -10.905657650483203, 36.17900143125272 -10.655040428584094, 36.53465887860425 -10.108655082055241 M36.53465887860425 -10.108655082055241 C36.768756313660305 -9.692991381177437, 37.00285374871636 -9.277327680299635, 37.148061474273504 -9.019496659696287 M36.53465887860425 -10.108655082055241 C36.65748875294712 -9.890558202285986, 36.78031862728999 -9.67246132251673, 37.148061474273504 -9.019496659696287 M37.148061474273504 -9.019496659696287 C37.28961606363139 -8.725555526111622, 37.43117065298928 -8.431614392526955, 37.69042114880834 -7.893275190886684 M37.148061474273504 -9.019496659696287 C37.3399125777047 -8.62111373846539, 37.5317636811359 -8.222730817234492, 37.69042114880834 -7.893275190886684 M37.69042114880834 -7.893275190886684 C37.8318886606059 -7.543847701658448, 37.97335617240345 -7.194420212430213, 38.159509229970325 -6.734618561215508 M37.69042114880834 -7.893275190886684 C37.82319489542202 -7.565321469745131, 37.95596864203571 -7.237367748603577, 38.159509229970325 -6.734618561215508 M38.159509229970325 -6.734618561215508 C38.28197324884309 -6.365776448362379, 38.40443726771585 -5.996934335509249, 38.55339813421488 -5.548287939305138 M38.159509229970325 -6.734618561215508 C38.24865095490699 -6.466137888511347, 38.337792679843666 -6.197657215807186, 38.55339813421488 -5.548287939305138 M38.55339813421488 -5.548287939305138 C38.61769575777348 -5.3030932339098715, 38.68199338133208 -5.057898528514606, 38.87046928754556 -4.339158212148133 M38.55339813421488 -5.548287939305138 C38.64335122086245 -5.205257834003588, 38.73330430751002 -4.86222772870204, 38.87046928754556 -4.339158212148133 M38.87046928754556 -4.339158212148133 C38.927751371872006 -4.045026815704651, 38.98503345619845 -3.7508954192611696, 39.109419776581774 -3.1121979531509023 M38.87046928754556 -4.339158212148133 C38.94278268282406 -3.967844210834536, 39.01509607810256 -3.596530209520939, 39.109419776581774 -3.1121979531509023 M39.109419776581774 -3.1121979531509023 C39.16731054606704 -2.663208576848622, 39.22520131555231 -2.2142192005463412, 39.26926770250937 -1.872449005199798 M39.109419776581774 -3.1121979531509023 C39.149566867128314 -2.80082504681167, 39.189713957674854 -2.489452140472438, 39.26926770250937 -1.872449005199798 M39.26926770250937 -1.872449005199798 C39.28750245807668 -1.5884279684091347, 39.305737213643994 -1.3044069316184714, 39.34935621591342 -0.6250057626472757 M39.26926770250937 -1.872449005199798 C39.29257298176014 -1.5094504691862696, 39.3158782610109 -1.1464519331727412, 39.34935621591342 -0.6250057626472757 M39.34935621591342 -0.6250057626472757 C39.34935621591342 -0.18629232154049769, 39.34935621591342 0.2524211195662803, 39.34935621591342 0.625005762647271 M39.34935621591342 -0.6250057626472757 C39.34935621591342 -0.23523969781107662, 39.34935621591342 0.15452636702512246, 39.34935621591342 0.625005762647271 M39.34935621591342 0.625005762647271 C39.32695305030158 0.973953150561419, 39.30454988468974 1.322900538475567, 39.26926770250937 1.8724490051997846 M39.34935621591342 0.625005762647271 C39.33316598648858 0.8771816544571106, 39.31697575706374 1.12935754626695, 39.26926770250937 1.8724490051997846 M39.26926770250937 1.8724490051997846 C39.20592144722817 2.363750052027738, 39.142575191946975 2.8550510988556916, 39.109419776581774 3.1121979531508885 M39.26926770250937 1.8724490051997846 C39.213900052541746 2.3018695647694973, 39.158532402574124 2.73129012433921, 39.109419776581774 3.1121979531508885 M39.109419776581774 3.1121979531508885 C39.04894182946657 3.4227394295688285, 38.98846388235136 3.7332809059867684, 38.87046928754556 4.339158212148129 M39.109419776581774 3.1121979531508885 C39.034118445833904 3.4988543715993226, 38.958817115086035 3.885510790047757, 38.87046928754556 4.339158212148129 M38.87046928754556 4.339158212148129 C38.75069584824721 4.7959062463296975, 38.63092240894886 5.252654280511267, 38.55339813421489 5.548287939305125 M38.87046928754556 4.339158212148129 C38.75888994881207 4.764658589530249, 38.64731061007858 5.19015896691237, 38.55339813421489 5.548287939305125 M38.55339813421489 5.548287939305125 C38.450777234537796 5.857365738712592, 38.348156334860704 6.166443538120058, 38.159509229970325 6.734618561215495 M38.55339813421489 5.548287939305125 C38.40850179223217 5.984692635260108, 38.263605450249464 6.4210973312150905, 38.159509229970325 6.734618561215495 M38.159509229970325 6.734618561215495 C38.03730823141177 7.0364573902507, 37.915107232853224 7.338296219285904, 37.69042114880834 7.893275190886679 M38.159509229970325 6.734618561215495 C38.023991195078764 7.069350727460623, 37.888473160187196 7.404082893705752, 37.69042114880834 7.893275190886679 M37.69042114880834 7.893275190886679 C37.49640005848073 8.296164136338252, 37.30237896815313 8.699053081789826, 37.148061474273504 9.019496659696284 M37.69042114880834 7.893275190886679 C37.48008575156989 8.330041143708872, 37.269750354331435 8.766807096531064, 37.148061474273504 9.019496659696284 M37.148061474273504 9.019496659696284 C36.9482174071517 9.374340037277195, 36.7483733400299 9.729183414858104, 36.53465887860425 10.108655082055236 M37.148061474273504 9.019496659696284 C36.9245960159264 9.416282209322956, 36.7011305575793 9.813067758949627, 36.53465887860425 10.108655082055236 M36.53465887860425 10.108655082055236 C36.37730258502075 10.35039660508073, 36.219946291437246 10.592138128106223, 35.85273396464064 11.156274872382301 M36.53465887860425 10.108655082055236 C36.319345800139104 10.439433790234784, 36.10403272167396 10.77021249841433, 35.85273396464064 11.156274872382301 M35.85273396464064 11.156274872382301 C35.65947905299259 11.415218848106052, 35.46622414134454 11.674162823829805, 35.10508890812658 12.158051136245302 M35.85273396464064 11.156274872382301 C35.57811921598161 11.524233617667138, 35.303504467322576 11.892192362951972, 35.10508890812658 12.158051136245302 M35.10508890812658 12.158051136245302 C34.84184375023278 12.467273877781183, 34.578598592338984 12.776496619317063, 34.29479594296866 13.10986736009567 M35.10508890812658 12.158051136245302 C34.932636776971144 12.360623222304728, 34.760184645815706 12.563195308364156, 34.29479594296866 13.10986736009567 M34.29479594296866 13.10986736009567 C33.99564222526958 13.41876813459697, 33.69648850757049 13.727668909098272, 33.42518473676799 14.007812326905684 M34.29479594296866 13.10986736009567 C34.01156407695857 13.402327515519747, 33.72833221094848 13.694787670943825, 33.42518473676799 14.007812326905684 M33.42518473676799 14.007812326905684 C33.0798133079458 14.321469520534743, 32.7344418791236 14.635126714163802, 32.49982870850189 14.848196188198111 M33.42518473676799 14.007812326905684 C33.19466280291241 14.217166247957183, 32.96414086905683 14.42652016900868, 32.49982870850189 14.848196188198111 M32.49982870850189 14.848196188198111 C32.1134600472925 15.156314913810718, 31.727091386083114 15.464433639423325, 31.522530344578715 15.627565626425152 M32.49982870850189 14.848196188198111 C32.20894493633229 15.080168255761102, 31.918061164162683 15.31214032332409, 31.522530344578715 15.627565626425152 M31.522530344578715 15.627565626425152 C31.316703443479263 15.77114156252919, 31.110876542379806 15.914717498633225, 30.497305573605708 16.34271804539089 M31.522530344578715 15.627565626425152 C31.181300964635682 15.865592470291631, 30.840071584692648 16.10361931415811, 30.497305573605708 16.34271804539089 M30.497305573605708 16.34271804539089 C30.201139150480362 16.522255871556563, 29.90497272735502 16.701793697722238, 29.428367264076787 16.990714730406093 M30.497305573605708 16.34271804539089 C30.17681267697239 16.537002722755325, 29.85631978033907 16.731287400119758, 29.428367264076787 16.990714730406093 M29.428367264076787 16.990714730406093 C29.197097091431424 17.111368231339565, 28.965826918786057 17.232021732273036, 28.320107912792388 17.56889292409717 M29.428367264076787 16.990714730406093 C29.14254868326159 17.139826100941843, 28.85673010244639 17.288937471477592, 28.320107912792388 17.56889292409717 M28.320107912792388 17.56889292409717 C27.877420829910253 17.76485736384335, 27.434733747028123 17.960821803589536, 27.177081595147804 18.07487676824742 M28.320107912792388 17.56889292409717 C27.8974870112646 17.755974660599904, 27.47486610973682 17.943056397102637, 27.177081595147804 18.07487676824742 M27.177081595147804 18.07487676824742 C26.861208872502214 18.191120850076437, 26.54533614985662 18.307364931905454, 26.003985251460616 18.506587066708033 M27.177081595147804 18.07487676824742 C26.71933908945746 18.243330241666804, 26.26159658376712 18.411783715086187, 26.003985251460616 18.506587066708033 M26.003985251460616 18.506587066708033 C25.746344151582573 18.583053592766106, 25.488703051704533 18.65952011882418, 24.805639386235413 18.86224982926107 M26.003985251460616 18.506587066708033 C25.746060744228018 18.5831377065813, 25.488136236995423 18.659688346454573, 24.805639386235413 18.86224982926107 M24.805639386235413 18.86224982926107 C24.39541415998898 18.95588106018204, 23.98518893374255 19.04951229110301, 23.586968259676766 19.140403561325773 M24.805639386235413 18.86224982926107 C24.348463116724542 18.96659732942296, 23.891286847213674 19.070944829584846, 23.586968259676766 19.140403561325773 M23.586968259676766 19.140403561325773 C23.10855997245115 19.217748903092733, 22.630151685225535 19.295094244859694, 22.35297965284788 19.3399052695533 M23.586968259676766 19.140403561325773 C23.27406194717469 19.190991827306412, 22.961155634672618 19.241580093287055, 22.35297965284788 19.3399052695533 M22.35297965284788 19.3399052695533 C21.877632333308664 19.385761453780454, 21.40228501376945 19.43161763800761, 21.1087442896239 19.45993515863156 M22.35297965284788 19.3399052695533 C22.026714792811728 19.371379648210084, 21.700449932775577 19.40285402686687, 21.1087442896239 19.45993515863156 M21.1087442896239 19.45993515863156 C20.7993832356427 19.469855765497975, 20.490022181661505 19.479776372364388, 19.859375000000004 19.5 M21.1087442896239 19.45993515863156 C20.685107695231412 19.47352035965512, 20.261471100838925 19.48710556067868, 19.859375000000004 19.5 M19.859375000000004 19.5 C19.859375000000004 19.5, 19.859375000000004 19.5, 19.859375 19.5 M19.859375000000004 19.5 C19.859375000000004 19.5, 19.859375 19.5, 19.859375 19.5 M19.859375 19.5 C10.904222554223331 19.5, 1.9490701084466622 19.5, -19.859374999999996 19.5 M19.859375 19.5 C11.436531518297858 19.5, 3.013688036595717 19.5, -19.859374999999996 19.5 M-19.859374999999996 19.5 C-20.352373623118208 19.484190493720206, -20.84537224623642 19.468380987440412, -21.108744289623893 19.45993515863156 M-19.859374999999996 19.5 C-20.229666568210448 19.488125470136303, -20.599958136420902 19.47625094027261, -21.108744289623893 19.45993515863156 M-21.108744289623893 19.45993515863156 C-21.465533238452885 19.425516157839517, -21.822322187281877 19.391097157047476, -22.35297965284787 19.3399052695533 M-21.108744289623893 19.45993515863156 C-21.533169238665117 19.418991394243236, -21.957594187706345 19.37804762985491, -22.35297965284787 19.3399052695533 M-22.35297965284787 19.3399052695533 C-22.614406228129102 19.297639848255198, -22.875832803410336 19.2553744269571, -23.58696825967676 19.140403561325773 M-22.35297965284787 19.3399052695533 C-22.742905867803177 19.276865023042284, -23.132832082758483 19.21382477653127, -23.58696825967676 19.140403561325773 M-23.58696825967676 19.140403561325773 C-23.908844573855838 19.066937393053646, -24.230720888034917 18.993471224781516, -24.805639386235388 18.862249829261074 M-23.58696825967676 19.140403561325773 C-24.021057182105235 19.041325597476423, -24.455146104533707 18.942247633627073, -24.805639386235388 18.862249829261074 M-24.805639386235388 18.862249829261074 C-25.25181043506249 18.72982860396882, -25.697981483889595 18.59740737867656, -26.00398525146059 18.506587066708043 M-24.805639386235388 18.862249829261074 C-25.17677145153081 18.75209978039336, -25.547903516826235 18.641949731525642, -26.00398525146059 18.506587066708043 M-26.00398525146059 18.506587066708043 C-26.310523523818365 18.393778148871657, -26.617061796176134 18.280969231035268, -27.177081595147797 18.074876768247425 M-26.00398525146059 18.506587066708043 C-26.280400828493168 18.40486357920247, -26.556816405525744 18.3031400916969, -27.177081595147797 18.074876768247425 M-27.177081595147797 18.074876768247425 C-27.56560628828654 17.902888411770437, -27.954130981425276 17.730900055293446, -28.32010791279238 17.568892924097174 M-27.177081595147797 18.074876768247425 C-27.608736092025694 17.88379612705528, -28.04039058890359 17.69271548586314, -28.32010791279238 17.568892924097174 M-28.32010791279238 17.568892924097174 C-28.575218531290425 17.435801877832894, -28.83032914978847 17.302710831568614, -29.42836726407678 16.990714730406097 M-28.32010791279238 17.568892924097174 C-28.74639142048781 17.346501091180087, -29.17267492818324 17.124109258262997, -29.42836726407678 16.990714730406097 M-29.42836726407678 16.990714730406097 C-29.661566045407078 16.849348258735514, -29.894764826737376 16.707981787064934, -30.497305573605686 16.3427180453909 M-29.42836726407678 16.990714730406097 C-29.73203401425 16.806630161907183, -30.035700764423225 16.622545593408272, -30.497305573605686 16.3427180453909 M-30.497305573605686 16.3427180453909 C-30.767321877424404 16.154366360664365, -31.037338181243125 15.966014675937828, -31.522530344578712 15.627565626425156 M-30.497305573605686 16.3427180453909 C-30.901409607577293 16.060832564673998, -31.3055136415489 15.778947083957092, -31.522530344578712 15.627565626425156 M-31.522530344578712 15.627565626425156 C-31.875101219082694 15.346399736313233, -32.227672093586676 15.06523384620131, -32.499828708501866 14.848196188198125 M-31.522530344578712 15.627565626425156 C-31.77600145527668 15.42542916079306, -32.02947256597465 15.223292695160962, -32.499828708501866 14.848196188198125 M-32.499828708501866 14.848196188198125 C-32.76227114917118 14.609852907428724, -33.024713589840495 14.371509626659323, -33.425184736767974 14.007812326905697 M-32.499828708501866 14.848196188198125 C-32.80782666851439 14.568480590094214, -33.11582462852691 14.288764991990304, -33.425184736767974 14.007812326905697 M-33.425184736767974 14.007812326905697 C-33.69423424601632 13.729996619231267, -33.96328375526466 13.452180911556837, -34.294795942968655 13.109867360095677 M-33.425184736767974 14.007812326905697 C-33.71218399433182 13.71146203039377, -33.999183251895666 13.415111733881842, -34.294795942968655 13.109867360095677 M-34.294795942968655 13.109867360095677 C-34.55530075648892 12.803863582990965, -34.81580557000918 12.497859805886252, -35.105088908126575 12.158051136245307 M-34.294795942968655 13.109867360095677 C-34.48414962042237 12.887441756029062, -34.673503297876096 12.665016151962446, -35.105088908126575 12.158051136245307 M-35.105088908126575 12.158051136245307 C-35.370681907258685 11.802180713428262, -35.636274906390796 11.446310290611217, -35.852733964640635 11.156274872382316 M-35.105088908126575 12.158051136245307 C-35.40305571026057 11.758802766719867, -35.70102251239456 11.359554397194428, -35.852733964640635 11.156274872382316 M-35.852733964640635 11.156274872382316 C-36.030790050253515 10.882732910127249, -36.208846135866395 10.609190947872182, -36.53465887860425 10.108655082055249 M-35.852733964640635 11.156274872382316 C-36.11822025320287 10.748416640100277, -36.38370654176511 10.34055840781824, -36.53465887860425 10.108655082055249 M-36.53465887860425 10.108655082055249 C-36.73442341344645 9.753952922090281, -36.934187948288645 9.399250762125314, -37.148061474273504 9.019496659696289 M-36.53465887860425 10.108655082055249 C-36.718443298489 9.78232723435934, -36.90222771837375 9.45599938666343, -37.148061474273504 9.019496659696289 M-37.148061474273504 9.019496659696289 C-37.32318301718152 8.655853028847037, -37.49830456008953 8.292209397997784, -37.69042114880834 7.893275190886686 M-37.148061474273504 9.019496659696289 C-37.33689540732819 8.62737895730932, -37.52572934038288 8.23526125492235, -37.69042114880834 7.893275190886686 M-37.69042114880834 7.893275190886686 C-37.81433763140771 7.587199083104042, -37.93825411400707 7.281122975321398, -38.159509229970325 6.73461856121551 M-37.69042114880834 7.893275190886686 C-37.8237769260908 7.563883842740456, -37.95713270337326 7.234492494594225, -38.159509229970325 6.73461856121551 M-38.159509229970325 6.73461856121551 C-38.26210096227658 6.425628609281812, -38.364692694582835 6.1166386573481155, -38.55339813421488 5.5482879393051325 M-38.159509229970325 6.73461856121551 C-38.31150341755261 6.276836285202734, -38.46349760513489 5.819054009189958, -38.55339813421488 5.5482879393051325 M-38.55339813421488 5.5482879393051325 C-38.647979996814186 5.187606305175438, -38.742561859413485 4.826924671045745, -38.87046928754556 4.339158212148136 M-38.55339813421488 5.5482879393051325 C-38.62845145790065 5.262077087775041, -38.703504781586425 4.97586623624495, -38.87046928754556 4.339158212148136 M-38.87046928754556 4.339158212148136 C-38.964130688444534 3.858226713875977, -39.057792089343515 3.377295215603818, -39.109419776581774 3.112197953150904 M-38.87046928754556 4.339158212148136 C-38.939756634853154 3.9833823276096743, -39.00904398216075 3.6276064430712123, -39.109419776581774 3.112197953150904 M-39.109419776581774 3.112197953150904 C-39.16147074175691 2.7085009458782197, -39.21352170693205 2.304803938605535, -39.26926770250937 1.872449005199809 M-39.109419776581774 3.112197953150904 C-39.17178674430447 2.628492067244477, -39.234153712027165 2.1447861813380507, -39.26926770250937 1.872449005199809 M-39.26926770250937 1.872449005199809 C-39.29014613249929 1.5472506053414166, -39.31102456248921 1.2220522054830243, -39.34935621591342 0.6250057626472781 M-39.26926770250937 1.872449005199809 C-39.28683601033973 1.5988084298590761, -39.30440431817009 1.3251678545183432, -39.34935621591342 0.6250057626472781 M-39.34935621591342 0.6250057626472781 C-39.34935621591342 0.2721574512655697, -39.34935621591342 -0.08069086011613869, -39.34935621591342 -0.6250057626472687 M-39.34935621591342 0.6250057626472781 C-39.34935621591342 0.2222520193856542, -39.34935621591342 -0.18050172387596974, -39.34935621591342 -0.6250057626472687 M-39.34935621591342 -0.6250057626472687 C-39.32928090465093 -0.9376949400600834, -39.30920559338844 -1.250384117472898, -39.26926770250937 -1.8724490051997822 M-39.34935621591342 -0.6250057626472687 C-39.32362641611945 -1.025768163158872, -39.29789661632548 -1.4265305636704755, -39.26926770250937 -1.8724490051997822 M-39.26926770250937 -1.8724490051997822 C-39.21303797131138 -2.308555696555034, -39.156808240113385 -2.744662387910285, -39.109419776581774 -3.112197953150895 M-39.26926770250937 -1.8724490051997822 C-39.22225750896555 -2.237050783112938, -39.17524731542172 -2.6016525610260937, -39.109419776581774 -3.112197953150895 M-39.109419776581774 -3.112197953150895 C-39.02098775197846 -3.566277709373917, -38.93255572737514 -4.0203574655969385, -38.87046928754556 -4.339158212148126 M-39.109419776581774 -3.112197953150895 C-39.0414754844258 -3.461077533340573, -38.97353119226983 -3.809957113530251, -38.87046928754556 -4.339158212148126 M-38.87046928754556 -4.339158212148126 C-38.76632289476528 -4.736313545151484, -38.66217650198501 -5.133468878154843, -38.55339813421489 -5.548287939305123 M-38.87046928754556 -4.339158212148126 C-38.77624147062375 -4.698489716665161, -38.68201365370195 -5.057821221182197, -38.55339813421489 -5.548287939305123 M-38.55339813421489 -5.548287939305123 C-38.43037021126227 -5.918828441400863, -38.307342288309655 -6.289368943496604, -38.15950922997033 -6.734618561215485 M-38.55339813421489 -5.548287939305123 C-38.44216264402149 -5.883311512799112, -38.330927153828085 -6.2183350862931, -38.15950922997033 -6.734618561215485 M-38.15950922997033 -6.734618561215485 C-38.030006994439844 -7.05449158673119, -37.90050475890935 -7.374364612246895, -37.69042114880834 -7.893275190886676 M-38.15950922997033 -6.734618561215485 C-38.04852917405194 -7.00874144498732, -37.93754911813355 -7.282864328759156, -37.69042114880834 -7.893275190886676 M-37.69042114880834 -7.893275190886676 C-37.474996342067485 -8.340609411436532, -37.25957153532662 -8.787943631986389, -37.148061474273504 -9.019496659696282 M-37.69042114880834 -7.893275190886676 C-37.54625874030707 -8.192631516720978, -37.402096331805794 -8.491987842555279, -37.148061474273504 -9.019496659696282 M-37.148061474273504 -9.019496659696282 C-36.930554947654535 -9.405701522632384, -36.713048421035566 -9.791906385568486, -36.53465887860425 -10.108655082055243 M-37.148061474273504 -9.019496659696282 C-37.011436626665564 -9.262087911390196, -36.874811779057616 -9.50467916308411, -36.53465887860425 -10.108655082055243 M-36.53465887860425 -10.108655082055243 C-36.33182166913596 -10.420267505215707, -36.12898445966768 -10.731879928376172, -35.85273396464064 -11.156274872382308 M-36.53465887860425 -10.108655082055243 C-36.29924426399967 -10.47031514776321, -36.06382964939508 -10.831975213471178, -35.85273396464064 -11.156274872382308 M-35.85273396464064 -11.156274872382308 C-35.58177684217744 -11.519332731781331, -35.31081971971424 -11.882390591180355, -35.10508890812659 -12.158051136245302 M-35.85273396464064 -11.156274872382308 C-35.612783017283704 -11.477787281859602, -35.372832069926766 -11.799299691336897, -35.10508890812659 -12.158051136245302 M-35.10508890812659 -12.158051136245302 C-34.91019173071755 -12.386988450793522, -34.7152945533085 -12.615925765341743, -34.29479594296866 -13.10986736009567 M-35.10508890812659 -12.158051136245302 C-34.785265246900515 -12.53373420720331, -34.46544158567444 -12.90941727816132, -34.29479594296866 -13.10986736009567 M-34.29479594296866 -13.10986736009567 C-34.027895418061036 -13.385464065003417, -33.7609948931534 -13.661060769911163, -33.425184736767996 -14.007812326905677 M-34.29479594296866 -13.10986736009567 C-34.09010759370646 -13.3212248859349, -33.885419244444265 -13.53258241177413, -33.425184736767996 -14.007812326905677 M-33.425184736767996 -14.007812326905677 C-33.21870364399958 -14.19533299216761, -33.01222255123116 -14.382853657429544, -32.49982870850189 -14.848196188198107 M-33.425184736767996 -14.007812326905677 C-33.0970683371407 -14.305798959562983, -32.76895193751341 -14.60378559222029, -32.49982870850189 -14.848196188198107 M-32.49982870850189 -14.848196188198107 C-32.14750063133012 -15.129168453898702, -31.79517255415835 -15.410140719599296, -31.52253034457872 -15.627565626425149 M-32.49982870850189 -14.848196188198107 C-32.15537991252511 -15.122884936822173, -31.810931116548335 -15.397573685446236, -31.52253034457872 -15.627565626425149 M-31.52253034457872 -15.627565626425149 C-31.315436168823716 -15.77202555846946, -31.108341993068716 -15.91648549051377, -30.49730557360571 -16.342718045390885 M-31.52253034457872 -15.627565626425149 C-31.28519771523967 -15.793118594688133, -31.047865085900618 -15.958671562951118, -30.49730557360571 -16.342718045390885 M-30.49730557360571 -16.342718045390885 C-30.22794488018499 -16.506006080681665, -29.95858418676427 -16.66929411597244, -29.42836726407679 -16.99071473040609 M-30.49730557360571 -16.342718045390885 C-30.07412611252733 -16.599251921575153, -29.65094665144895 -16.855785797759417, -29.42836726407679 -16.99071473040609 M-29.42836726407679 -16.99071473040609 C-29.153888156523767 -17.133910305004243, -28.87940904897074 -17.2771058796024, -28.320107912792388 -17.56889292409717 M-29.42836726407679 -16.99071473040609 C-29.160609095922965 -17.13040399522465, -28.892850927769135 -17.27009326004321, -28.320107912792388 -17.56889292409717 M-28.320107912792388 -17.56889292409717 C-28.014012212995812 -17.704392410390792, -27.707916513199233 -17.839891896684417, -27.177081595147804 -18.07487676824742 M-28.320107912792388 -17.56889292409717 C-27.887475884501868 -17.76040628944824, -27.454843856211347 -17.951919654799312, -27.177081595147804 -18.07487676824742 M-27.177081595147804 -18.07487676824742 C-26.708600431737842 -18.24728216697469, -26.24011926832788 -18.419687565701956, -26.00398525146062 -18.506587066708033 M-27.177081595147804 -18.07487676824742 C-26.727527104948237 -18.240316976277015, -26.27797261474867 -18.40575718430661, -26.00398525146062 -18.506587066708033 M-26.00398525146062 -18.506587066708033 C-25.759491534308275 -18.57915151858514, -25.514997817155933 -18.651715970462245, -24.805639386235413 -18.862249829261067 M-26.00398525146062 -18.506587066708033 C-25.609788958084543 -18.623582457403483, -25.215592664708467 -18.740577848098933, -24.805639386235413 -18.862249829261067 M-24.805639386235413 -18.862249829261067 C-24.557770483580587 -18.91882428879628, -24.30990158092576 -18.97539874833149, -23.586968259676766 -19.140403561325773 M-24.805639386235413 -18.862249829261067 C-24.409749375626344 -18.952609140758835, -24.01385936501727 -19.042968452256602, -23.586968259676766 -19.140403561325773 M-23.586968259676766 -19.140403561325773 C-23.29279172274577 -19.18796374244366, -22.99861518581477 -19.235523923561548, -22.352979652847882 -19.3399052695533 M-23.586968259676766 -19.140403561325773 C-23.26349735662121 -19.192699828377478, -22.94002645356566 -19.24499609542918, -22.352979652847882 -19.3399052695533 M-22.352979652847882 -19.3399052695533 C-21.93721717319637 -19.380013375937743, -21.521454693544854 -19.420121482322184, -21.108744289623903 -19.45993515863156 M-22.352979652847882 -19.3399052695533 C-22.085248143353944 -19.365733006279928, -21.817516633860006 -19.39156074300656, -21.108744289623903 -19.45993515863156 M-21.108744289623903 -19.45993515863156 C-20.65376151848231 -19.47452557053183, -20.198778747340715 -19.4891159824321, -19.859375000000007 -19.5 M-21.108744289623903 -19.45993515863156 C-20.733234901687283 -19.471977013818, -20.357725513750662 -19.484018869004448, -19.859375000000007 -19.5 M-19.859375000000007 -19.5 C-19.859375000000004 -19.5, -19.859375000000004 -19.5, -19.859375 -19.5 M-19.859375000000007 -19.5 C-19.859375000000004 -19.5, -19.859375000000004 -19.5, -19.859375 -19.5" stroke="#9370DB" stroke-width="1.3" fill="none" stroke-dasharray="0 0" style=""/></g><g class="label" style="" transform="translate(-26.984375, -12)"><rect/><foreignObject width="53.96875" height="24"><div xmlns="http://www.w3.org/1999/xhtml" style="display: table-cell; white-space: nowrap; line-height: 1.5; max-width: 200px; text-align: center;"><span class="nodeLabel"><p>Success</p></span></div></foreignObject></g></g></g></g></g></svg>